<svg width="799" height="533" viewBox="0 0 799 533" xmlns="http://www.w3.org/2000/svg" xmlns:xlink="http://www.w3.org/1999/xlink"><title>Canada + Ontario Quebec insert</title><defs><path id="a" d="M0 0h300v194H0z"/></defs><g fill="none" fill-rule="evenodd"><path d="M127.07 251.708l-8.609-121.774s-.533-3.512-2.39-7.091c-1.858-3.58-2.92-3.845-2.92-4.905v-3.447s1.062-.266 0-1.326c-1.06-1.06-7.827-5.038-7.827-5.038L4.893 207.56s1.46.928 2.388 1.723c.929.796 1.99.663 4.113 2.121 2.255 1.459.928.53 3.449.796 2.653.265 1.061.398 2.919 3.05 1.99 2.783-.398.795-1.725 2.916-.265.398-.398.663-.53.928 31.177 17.102 76.815 34.868 106.799 45.739.265 0 4.763-13.125 4.763-13.125z" fill="#D9D8D8"/><g fill="#D9D8D8"><path d="M289.89 100.172c.265.133.796.398 1.46.796 3.183 1.723-1.858 1.59 4.643 1.723 6.5.133 4.113 3.182 7.164 0 3.051-3.182 3.184.928 3.847-4.64.796-5.568 3.317-3.845.664-6.231-2.786-2.386-1.858-2.652-3.184-2.784-1.327-.133 2.918 2.519-1.327-.133-4.245-2.651-6.103-.265-5.307-3.845.796-3.58 3.715-3.844 2.123-6.628-1.592-2.785 2.919-6.63-1.592-2.785-4.51 3.845-6.103 3.58-7.032 6.232-.928 2.651-.796 2.253 0 4.507.796 2.387.796 2.387 1.327 4.375.53 2.122.53 2.122-.265 3.05-.796.928-2.388 1.59-2.388 1.59v4.64c0-.132-.133 0-.133.133M311.382 175.476c4.644-.795 7.828 3.447 5.97-2.386-1.857-5.966.797-4.64-1.857-5.966-2.653-1.326 3.715 2.916-2.653-1.326-6.501-4.243-7.828-1.856-9.42-5.966-1.592-3.977-1.326-.265-1.857-6.231-.53-5.966-.929-3.182-1.46-7.292-.397-3.977-.795-2.386-.928-5.966-.133-3.447-.796-4.64.929-6.894 1.724-2.254-.664 3.182 1.724-2.254 2.388-5.435 2.654-9.413.796-10.473-1.857-1.06-1.061-3.58-3.316-2.254-2.256 1.458-4.379.928-4.91 3.314-.53 2.387-1.326 4.64-1.326 4.64s.133-1.06-2.786-2.386-2.123-3.712-2.919-1.326c-.796 2.387-1.857 1.06-.796 5.966 1.062 4.906 1.062 3.182 1.062 7.027 0 3.712 2.388 4.64.53 6.761-1.857 2.122 1.592 3.447-1.857 2.122-3.45-1.326-3.98.132-3.98-2.122s1.857-1.458 1.326-5.435c-.53-3.978 2.123-5.966 0-7.027-2.122-1.06-2.122-2.121-3.714-3.447s-6.236-2.386-6.236-2.386 3.715 7.69 3.052 9.678l-9.553 32.481-42.852-10.606 2.255 8.618s-.398.265 1.99 1.988c2.388 1.724 1.194 2.254 3.715 3.315 2.388 1.06 1.592.53 4.246 1.325l2.653.796s-.796.795 0 2.651c.796 1.856-3.184.796 0 2.917 3.184 2.121-4.776 2.386 4.776 2.917 9.552.53 6.236-.53 12.073 0 5.838.53.398-.265 7.164.132 6.766.398.796 2.52 6.766.398 5.97-2.121.796 1.06 6.9-2.121 6.102-3.182 6.898-4.64 6.898-4.64l2.123 1.325s-1.062 2.387 2.388 4.243c3.45 1.856 3.45.265 4.909 1.989 1.326 1.723-.531 2.253 4.245 3.314 4.776 1.06 3.715 2.254 7.562 1.59 3.715-.795 2.123.929 5.44-.264 3.184-1.193.796-5.303 0-6.63-.796-1.325 3.45 1.061-.796-1.325l-4.246-2.386s-1.061-3.182 2.654-1.856c3.316 1.458-1.327 2.253 3.316 1.458"/><path d="M201.001 186.612c5.705 6.364 1.327 4.906 8.889 10.74 7.43 5.833 10.083 4.64 10.879 8.882.929 4.11-2.388 3.314 2.388 7.557 4.909 4.375-3.45 5.303 6.899 5.17 10.348 0 9.817-1.988 11.277 0 1.326 1.989-.53 1.326 1.857 3.978 2.388 2.651 7.96 8.882 10.216 9.678 2.255.928 46.434 13.39 46.434 13.39l-5.837 55.417c10.879 3.05 59.038 2.917 59.038 2.917.133-8.353 2.123-9.148 3.184-12.33 1.061-3.182 2.123-.265 3.45-2.386 1.326-2.121.53-2.652 1.591-6.496 1.062-3.713 1.592-1.591 7.297-5.966 5.705-4.243 0 0 0-4.243 0-4.242.266-2.121 3.45-3.712 3.184-1.591 0 0 4.643-1.326 4.644-1.326 3.98-1.59 6.766-3.977.266-.265.531-.53.796-.663-1.857-1.458-6.368-4.905-7.827-5.833-1.858-1.061 0 0 3.715-.53 3.714-.531 4.908-2.652 5.439-6.1.53-3.314 1.327-1.192 4.245-.397 2.92.795 1.327.53 3.98-1.59 2.654-2.122 0 0 5.44-3.978s0 0 1.99-3.182.398-3.447 0-5.17c-.398-1.592-3.051.53-8.225 0-5.175-.53-2.654-.266-6.236-2.917-3.45-2.652-2.653-3.712-3.715-7.557-1.061-3.712 1.592-1.06 6.236-1.06 4.643 0 2.122 1.325 5.174 2.65 2.919 1.327.53 1.327 4.245 3.713s1.858-.53 4.91-3.182c2.918-2.651 1.857-2.386 3.714-4.64 1.857-2.121.53-5.701 1.592-7.027 1.061-1.325.53-1.856 2.388-3.447 1.857-1.59 0 0 1.061-.132 1.062-.133 1.062 3.049 6.236 6.629 5.174 3.447 2.388-1.061 3.184-1.857.796-.795-2.919-7.556-1.061-7.291 1.857.265 0 0 1.857.53s1.857 1.856 5.174 4.64c3.184 2.652 0 0 2.919-7.026 2.919-7.027 1.592-2.652 2.919-5.436 1.326-2.652 1.326-1.59 0-6.761-1.327-5.17 0 0-2.256-2.122-2.255-2.12-2.388-2.651-1.061-4.64 1.326-1.856 1.326-1.59 0-4.905-1.327-3.182-3.184-2.121-3.98-5.701-.796-3.447-.531-1.59-2.654-6.231-2.122-4.64-1.592 0-5.97-.53-4.245-.53-2.388-.53-9.42-.266-7.03.266.531 3.447 2.389 6.232 1.857 2.651.53 3.181 0 7.026-.531 3.712-4.246.796-8.093 4.64-3.715 3.712 0 3.712-1.46 11.534-1.459 7.823-.398 2.917-1.724 4.243-1.327 1.326-3.45-.265-6.236-2.917-2.653-2.651 0 0-2.919-2.651-2.918-2.652.266-4.508 1.593-8.353 1.326-3.712 1.06-2.916 0-5.17-1.062-2.254-2.389-4.773-5.97-7.424-3.45-2.652-5.175 9.147-7.828 16.44-2.654 7.29 0 0-3.184-6.497-3.184-6.496-1.99-2.121-5.174-4.243-3.184-2.12 0 0 3.98-8.617 3.98-8.618-3.45-1.326-9.155-4.64-5.704-3.182-1.592-.796-3.449-5.17-1.857-4.376.796-3.183 1.327-7.16.53-3.977-1.062-3.182-2.654-7.557-1.592-4.242-1.326-1.856-2.653-4.64-1.327-2.652 2.388-1.856 1.857-4.508-.53-2.651-1.326-3.314-.796-4.375.531-1.06 2.654-.795 5.174-2.651 2.521-1.856 2.123-1.591 7.297-4.243 5.174-2.651 1.858-4.905 2.919-12.462 1.061-7.557-1.327.928-5.705 0-4.245-.928-1.857.398-5.97 0-3.98-.398-1.592 0-6.235.928-4.511.796-.266 1.591-3.848 4.243-3.45 2.651 0 0-6.235 7.556-6.236 7.557.53 2.387 2.122 8.353 1.592 5.966 1.062 3.447 1.858 8.617.796 5.17 0 0-1.858 3.447-1.857 3.447-1.326 1.06-3.714 5.569-2.388 4.375-.531 1.458.53 2.518 1.062 1.061 1.327 1.061-.265 4.243-1.592 3.182-1.327 1.856.265 8.883 1.592 7.026 0 0 2.388 1.06s1.327 1.06 5.175 4.64c3.714 3.447.265 2.387 2.388 7.69 2.122 5.303.53 1.193 0 7.954-.531 6.762 0 0-1.858 3.447-1.857 3.447-1.592.266-5.174 2.122-3.45 1.856.265 3.182-.796 7.557-1.061 4.242-2.123 1.59-4.776.265-2.653-1.326.53-1.326 0-6.497-.53-5.17.53-3.181 0-5.7-.53-2.387-.929-2.387 0-3.978.929-1.59 3.45-1.856 4.51-3.712 1.062-1.856-1.591-2.386-4.51-4.905-2.919-2.387-1.99-1.06-4.378-5.7-2.388-4.641-1.858-2.918-4.644-5.702-2.653-2.651-3.714 2.387-3.714 2.387s0 2.386-.796 8.352c-.398 2.519-.796 3.314-1.194 3.314.663.796 1.592 1.856 2.52 2.652 1.592 1.326 1.062 1.326 2.388 4.64 1.327 3.182 0 0-1.857 0s0 3.977 0 3.977h2.919c2.918 0 0 0 1.061 4.243 1.061 4.242-.796 1.326-3.715 2.784-2.918 1.458-1.061 0-7.297-4.11-6.235-4.11-1.592-1.06-5.97 0-1.46.398-2.122.663-2.388.796 0-.133 0-.398-.398-.796-1.326-1.326-2.122.265-9.685-2.386-7.562-2.652-1.326-.265-8.093-1.856-6.766-1.591 0 0-5.439-4.243-5.44-4.242-.53-1.326-1.99-6.761-1.46-5.303-3.45.53-8.756 2.121-5.44 1.59-3.45.398-7.828-.265-4.245-.663-.265 1.458-2.388 3.58-2.123 2.12 0 0 .796 3.977s-.53 1.856-2.123 5.966c-.265.663-.398 1.06-.53 1.325.265.663.53 1.591 1.061 2.387 1.061 1.856-.53 1.326-3.45 6.231-2.918 4.905 0 0-1.591-3.182-1.592-3.182 0 0-3.45-6.761-3.45-6.762 0-2.387 2.123-6.231 2.123-3.713.265-1.856-1.857-4.243-2.123-2.386 0 0-5.042 1.724-5.041 1.723-2.786.663-9.287-.398-6.5-1.06-1.592 1.326-8.093 0-6.5-1.326-1.857-.53-9.154-2.652-7.297-2.12-1.327-1.325-3.184-4.242-1.857-2.917.53-1.856 1.725-2.52 1.194-.662 1.194-.662 5.837-.132 4.644.53-.265-.795 0-2.12.266-1.327-1.061-.796-3.98-4.906-2.919-3.978 0 0-2.388-2.121-2.388-2.122-1.99.53-1.99.53l-2.388.53c-2.388.53 0 0-4.643-2.121-4.644-2.121-1.327-1.326-3.185-2.652-1.857-1.325-1.592-1.856-3.714-3.977-2.123-2.121 0-1.59 0-1.59l-6.9-5.304c-.265.53-11.143 16.97-11.01 18.296.795 1.06 1.06.795 3.316 4.375 2.255 3.58-1.725 0 3.98 6.363z"/><path d="M316.424 141.271c5.837 3.977 5.837.398 7.43 4.905 1.592 4.508-5.97 5.038 2.255 5.436 8.225.265 6.368 3.05 8.756 0s-1.194-1.59 2.388-3.05c3.582-1.457 3.98 5.039 4.113-2.386.265-7.556 3.45-5.435 0-8.617-3.45-3.182-3.98-2.917-4.378-4.11-.398-1.193-1.46-.133-.398-1.856.928-1.856 0 .398 2.123-3.05 2.122-3.446 3.316-2.65 2.52-5.568-.796-2.916 2.919-3.844-1.724-3.181-4.511.663-3.98-.398-5.175 1.06-1.194 1.459-4.643-.928-6.102-1.193-1.327-.265-1.327-.928-3.45.398s-4.113.795-2.52 3.182c1.724 2.386 1.193.663 2.122 2.916.929 2.254 1.99 1.194.796 3.58s-3.051 3.58-3.051 3.58c-2.521.795-.266 3.712-3.184.795-2.92-2.917-1.725-2.519-2.92-2.917-1.193-.397-1.856-1.59-2.918.53-1.061 2.122-4.51-1.458-1.194 3.58 3.582 4.905-1.194 1.989 4.511 5.966M326.242 85.854c-4.246-.133-2.123 1.06-5.175.928-3.184-.133-1.592-.398-4.51-2.386-3.052-1.99-1.46-5.834-3.052-1.99-1.592 3.846.796 12.33 2.388 12.728 1.592.265-1.46-2.253 1.99 0 3.45 2.254 2.786 2.387 4.91 2.784 2.122.398 4.112.928 4.112.928-1.061 2.254-6.899 1.857-1.194 5.304 5.705 3.314 1.46 3.977 6.5 3.844 5.042-.132 3.185 3.58 5.042-.132 1.858-3.712 1.99-1.326 1.858-3.712-.133-2.52-1.725 4.507 0-3.845 1.724-8.485 3.714-7.292.928-11.137-2.919-3.844 1.062-4.64-3.45-4.507-4.51.132-2.918 0-5.837.663-3.051.53-.265.663-4.51.53M317.22 62.255c3.715.133 2.786 1.06 4.909-.265 2.255-1.326-.266-3.314 2.255-1.326 2.52 1.989 2.388.398 2.52 2.122.134 1.723 2.256 1.856 2.256 1.856-.53.397-1.99 1.325-2.786 1.988s-.928-2.519-.796.663c.133 3.05-2.255 4.773 1.46 3.712 3.714-1.06 1.459-.795 4.112-1.06 2.786-.398 4.91 6.894 3.848-.928-1.062-7.955-.664-7.425-1.062-8.883-.398-1.458 1.99-.928-1.459-3.05-3.317-2.253-3.847-1.855-5.307-3.711-1.326-1.99-.53-1.857-2.919-4.375-2.388-2.52-3.714-5.038-5.174-3.315-1.459 1.724-2.786 0-2.122 3.977.663 3.978.663 3.05 1.724 4.64 1.062 1.724 1.99.663 1.725 2.387-.265 1.723-.53 1.856-2.52 2.254-1.99.398-2.256-2.254-1.99.398.265 2.253-2.521 2.784 1.326 2.916M343.621 65.835c1.46.663-4.245.398-1.592 2.519 2.786 2.254 3.715.397 3.848 2.784.132 2.386-5.572 2.254.796 2.784 6.368.53 5.041-.795 7.96 0 2.919.795 3.582-.133 2.919-2.254-.796-1.988-.398-1.193-1.858-1.856-1.46-.53.133-.928-2.122-.795-2.256.132-.93 4.507-2.256.132-1.327-4.375-1.857-3.049-1.327-5.038.531-2.12 2.654-1.856.133-3.447-2.52-1.59-2.388-.663-3.715-1.988-1.459-1.326-.132-.53-2.52-1.856s-2.521-3.05-3.052-2.254c-.53.795-.53 1.326-.53 2.519s-1.062.397 0 2.916c1.194 2.52-.796 4.11 3.316 5.834"/><path d="M347.601 50.058c13.002-.265 14.329-1.193 13.93-.265-.397.928-.397-.928-3.581 1.723-3.317 2.652-3.45 2.254-2.256 5.171 1.194 3.05-2.52.53 1.725 4.64 4.113 4.11-.796 3.447 4.113 4.11 4.909.663 5.174 4.375 7.96-.663 2.786-5.038-4.909-.928 3.184-6.098 8.093-5.303 9.022-6.497 9.022-6.497s4.908-2.386 1.194 1.459c-3.715 3.712-5.573 2.254-4.777 5.833.797 3.58-2.122 3.977 1.062 4.773 3.184.795 4.51 0 5.44.663.928.663 1.591-1.459 1.06.928-.53 2.386-1.857.795-5.04 1.06-3.185.398-5.308-.795-3.848 1.856 1.46 2.652 1.725 3.58 1.99 5.171.265 1.458 2.388.663-.133 2.121-2.52 1.591-1.592.265-3.184 1.459-1.592 1.193-1.327 1.325-2.52 3.314-1.195 1.989 2.387 1.06-2.256 1.989-4.51.928-3.317 1.59-6.899 1.59-3.45 0-5.837.133-5.837.133-6.634-3.712-2.123-2.651-7.828-4.507-5.705-1.99-4.643-3.182-5.705-1.99-1.061 1.327-1.592-.927-1.724 2.918-.133 3.712-5.175 2.386 2.52 6.363 7.695 3.845 7.165 3.447 10.216 3.845 3.051.398.133-3.182 3.45 0 3.316 3.182 4.112.53 3.183 4.11-.928 3.58-.265 1.856-.928 4.64-.664 2.784-1.725 2.121-.133 5.17 1.592 3.182-4.643 4.243 2.255 4.508 6.9.265 0 .53 8.359 0 8.358-.53 2.786-2.519 9.42-.795 6.765 1.723-10.349 3.447 8.755 2.121 19.105-1.458 16.452.398 19.105-1.458 2.653-1.856 1.46 1.458 3.582-2.52 2.255-3.844 2.52-3.181 2.52-5.568 0-2.386 2.787 1.194 0-3.181-2.785-4.243-1.724-5.569-4.112-5.701-2.52-.133 0-1.856-4.776-.796s-3.317 1.06-7.032 1.856c-3.582.796.531.398-5.44 1.591-5.97 1.194-3.183 1.856-7.429 1.856-4.245 0-3.184-3.712-6.766-.928-3.582 2.917-.398 7.822-3.582 2.917-3.184-4.905-3.317-5.7-3.847-6.629-.531-.928-3.715-.132 2.388-3.447 6.103-3.182 2.786-3.447 7.695-3.314 4.908.132 1.99.928 7.031-.133 5.042-1.06 4.51-.928 7.695-2.519 3.184-1.59.133-4.11 3.715-2.121 3.582 1.989 2.122 1.06 6.103 2.784 3.98 1.856 1.857 7.292 5.439 1.724 3.582-5.569 3.98-4.773 4.378-7.292.398-2.52 2.256-3.845-.796-3.977-3.051-.133-.929 2.253-4.113-.266s-4.776-4.375-6.5-3.844c-1.725.53 2.52-2.254 7.164-9.811 4.643-7.69 8.358-7.424 5.306-9.943-3.184-2.652-4.51-3.58-6.102-3.712-1.725-.133-3.582.397-3.052-.663.664-1.06-.132-4.11 4.246-5.966 4.378-1.856 3.184 2.651 5.041-2.52 1.858-5.037.133 1.46 2.123-5.7 1.99-7.16-.133-5.966 1.99-9.148 2.123-3.182 1.99 0 2.786-4.773.796-4.772.53-7.026 0-8.617-.53-1.591 1.99-1.459-1.592-3.315-3.45-1.988.929-8.485-9.818-3.844-10.746 4.507-11.675 6.629-14.063 9.413-2.388 2.784 1.327 5.833-3.316 2.12-4.644-3.711 1.326-3.446-8.226-4.374-9.42-.928-4.909-3.05-12.736-1.193-7.828 1.856-8.358.663-12.206 2.784-3.847 2.121-10.215-2.784-4.245 4.375s2.653 5.833 7.827 9.148c5.042 3.181 1.858 3.712 5.838 5.303 3.98 1.59 2.122 4.64 7.562 1.06 5.44-3.58-.398-4.905 7.827-5.303 8.226-.397 13.002-4.773 9.022.663-3.98 5.436 2.255 3.05-6.236 6.629-8.49 3.58-12.073-1.591-16.185 3.05-4.113 4.507.53 11.533-5.042 4.11-5.572-7.425-5.307-8.22-6.235-9.016-.929-.796.928-1.724-3.317-3.845-4.245-2.254-8.226-2.651-8.226-1.723 0 .928-4.908 12.064-3.449 13.523 1.46 1.458 4.909-2.254 1.99 4.242-3.715 6.231-15.124 7.424-2.123 7.16"/><path d="M350.122 111.441c6.501-.397 8.624 6.231 6.766-1.193-1.857-7.424-.928-5.436-1.857-7.424-.929-1.989-1.327-3.182-1.327-3.182l-2.255.133c-3.184-.133-3.715-.663-4.776 1.458-1.062 2.121 0-1.193-1.062 2.121-1.061 3.182-3.582 3.05 0 5.568 3.582 2.52-1.99 2.784 4.511 2.52M419.376 115.286c-.663.133-1.327 2.386-3.582 3.845-2.654 1.723-1.592 1.06-4.378 3.712-2.92 2.651 0 0-1.858 1.193-1.857 1.193-1.592-.132-7.031 0-5.44.133-1.592 1.724-4.909 4.243-3.317 2.519 0 0-2.123 5.303-2.122 5.303 0 1.723 1.327 10.606 1.327 8.882 0 0-2.123-2.387-2.122-2.386 0 0-.53-4.64-.531-4.64-1.327-3.314-3.185-7.822-1.857-4.375 1.062-5.17 3.185-10.208l.53-.928s-9.42 1.06-11.94.928c-2.653 0-.663 4.773-2.255 8.087-1.592 3.314-1.062 1.856-1.858 4.905-.796 3.182-.796 2.652-.796 3.978 0 1.325.265 5.966.265 5.966l-1.194 8.882c-1.194 8.883.398 2.387 1.99 2.121 1.593-.132 3.848 3.315 5.705 4.11 1.858.796 0 0-1.857 1.591s-1.99.265-4.909.796c-2.919.53 1.592 3.182 5.97 5.17 4.378 2.121 3.848 0 9.553-.265 5.704-.265 1.592 1.856 4.378 3.58 2.918 1.856 1.592-1.06 3.316-1.856 1.858-.796 4.113.265 9.818 0 5.705-.266 1.857 1.06 7.562 2.386s2.123-.53 3.848-2.386c1.857-1.856 2.122-1.326 6.5-1.591 4.379-.265 2.654 1.59 8.89 1.59 6.235 0 2.122-.265 4.112-3.579 1.99-3.314 3.848-1.06 8.093-1.59 4.113-.531 2.919.264 4.113.264 1.326 0 2.918 6.497 6.766 9.81 3.847 3.315 0 0 1.857-2.12 1.858-2.122 3.848 2.386 8.358 2.916 4.379.53 1.062 1.326 2.123 5.701 1.062 4.375-.53 2.652-5.705 4.64-5.174 2.122-1.592.266-6.766 2.652-5.174 2.386 0 1.326 1.858 8.352 1.857 7.027.796 1.326 8.358 3.58s3.847-3.315 5.97-8.087c2.123-4.64 0 0 2.123-1.856 2.122-1.856 1.857-2.785.53-7.027-1.326-4.11 0 0 2.123-2.652 2.123-2.651 3.317 3.182 7.297 4.376 3.847 1.325 1.592 1.856 4.378 5.965 2.919 4.11 0 0-2.123 11.402-2.122 11.402-.796 2.917-1.857 7.292s1.592 1.856 5.705 4.64c4.113 2.784 0 0-3.317 1.591-3.317 1.59-3.051 5.17-6.235 7.69-3.185 2.651 0 0-5.175-.53-5.174-.531-1.326.264-5.97-2.122-4.643-2.386-1.592-.265-4.643 5.966-1.99 3.845-1.327 3.845-.929 3.58l-.133.132c-1.326 1.326 0 0 1.327 3.58s1.858.795 5.44 2.386c3.582 1.59 3.582.265 5.44.265 1.856 0 3.183-.53 6.235-1.856 3.184-1.326 2.653-1.06 5.174-1.856 2.653-.795 2.122-1.06 3.847-2.917 1.857-1.856 1.592.796 4.909 1.326 3.317.53 1.327 1.06 6.5 4.375 5.175 3.315 0 0 4.644-.265s2.654.795 11.675 5.17c9.154 4.375 2.123 1.857 6.766 5.304 4.644 3.58 2.388-.133 6.766 0 4.379.132 4.644-.133 8.89-.266 4.112-.132 3.183.928 7.827-.397 4.643-1.326 8.093 1.325 10.879 0 2.919-1.326 0 0-1.592-5.17-1.592-5.171 0 0-3.317-1.327-3.317-1.325-1.327.266-10.879-1.458-9.552-1.723-8.889-3.447-10.879-6.761-2.123-3.315 0 0 2.654.53 2.653.53 9.42.53 11.675-.265 2.388-.796 1.857.795 16.185 4.905 14.461 4.11.133-.795-1.99-2.121s-1.326-1.856-.265-6.762c1.061-4.905.265-2.386-2.123-6.496-2.388-4.11-7.297-4.905-10.879-8.617-3.582-3.58 0 0-5.97-.53-5.97-.531 0 0-9.818-5.701-9.817-5.701-2.388-1.591-4.643-4.64-2.388-3.183-1.327-3.845-1.327-7.558 0-3.58 1.858.266 9.155 1.326 7.296 1.06 0 0 5.97 1.591s2.388 1.856 5.97 4.375c3.582 2.652 1.857 1.06 6.235 2.121 1.327.266 1.858.53 2.123.663 0-.132.133-.397.663-.663 2.123-1.06.266-5.17 1.327-11.136 1.061-5.966 1.857-4.64 3.582-7.557 1.858-2.917 0 0 1.592-5.436 1.592-5.435-1.857 1.591-11.144 1.326-9.42-.265-1.592.265-6.5-2.121-4.91-2.386 0 0-11.941-4.375-11.94-4.375 0 0-10.88-3.182-10.878-3.182-4.377-1.06-13-5.17-8.624-4.11 0 0-5.175-5.966-5.174-5.966 0 0-6.5-1.326-6.502-1.326-3.583-.53-5.175-4.64-1.592-4.11.53-2.387-1.592-4.64-2.123-2.387 0 0-4.909.795-4.908.795-4.378 1.856-9.552 0-5.174-1.856-.796-1.326-4.909-8.352-4.112-7.027 0 0-4.112-1.99-4.113-1.988-2.389-.795-12.737 2.785s-1.326 0-2.919-2.784c-1.592-2.784-1.06-.53-2.122-8.352-1.062-7.823-2.919-.266-12.206-2.652-9.42-2.386-1.327 0-7.827-1.193-6.501-1.193 1.326-2.254 1.592-3.58.265-1.326.53-1.59 0-2.254-.531-.795-4.91-.53-8.89-1.06-3.847-.53 0 0-5.704-1.724-3.98-.663-3.45 0-2.786.398M454.268 240.174c-5.837-6.232-3.45-5.834-7.96-7.292-4.51-1.326-.398-2.784-6.634-1.724-6.235 1.06-6.898 0-8.623.398-1.725.398 3.715 4.11-3.45-.398-7.296-4.507-13.134-9.015-14.859-6.894 0 0 .398.663 0 3.182-.398 2.387-.398-1.06.133 4.11.53 5.17 3.98.398 0 6.629s-5.041 6.231-5.705 8.485c-.663 2.254-3.45 3.977 0 5.7 3.45 1.724-2.123.664 7.562 0 9.685-.662 10.747-3.579 12.206.929 1.46 4.507-4.113 18.826 3.45 4.64 7.562-14.186 5.837-14.584 7.562-14.186 1.724.398-3.052 1.724 3.45 2.917 6.633 1.193 4.51 6.364 8.623 0 4.245-6.496 10.215-.265 4.245-6.496"/><path d="M436.623 265.76c6.899 1.327 4.51 1.724 8.358 0 3.848-1.723 5.572 4.11 3.848-1.723-1.725-5.833 0-4.507-1.725-5.833l-1.725-1.326-1.725-1.326c-6.235 1.061-9.021-.397-8.623 2.785.265 3.181-1.725 3.977 0 5.833 1.592 1.59-5.307.265 1.592 1.59"/></g><path d="M115.484 351.35c-.663 1.59 1.327 7.291 4.644 10.34 3.184 2.917 4.112.929 4.112.929s.398 1.59.398 3.182c0 1.59.93.928 5.705 5.038 4.776 4.11.664 1.193.266 4.64-.398 3.447.265 2.12.398 3.447.265 1.325 1.592 1.325 2.255 1.856.663.398 3.184 2.519 4.378 3.712s3.45 3.712 5.705 6.364c2.255 2.784 0 0 .663 1.856.664 1.856 3.184 7.291 5.44 11.932 2.255 4.64-2.521 13.523-1.592 15.511.928 2.121 4.378 6.629 4.378 6.629s31.443 6.364 41.79 7.557l32.77-128.202s-7.43 5.17-9.154 3.58c-1.725-1.724-3.184 0-3.184 0l.929-4.906s2.918 2.121 5.837 0c2.654-1.856 6.368-3.977 7.032-4.375l1.592-6.496s-35.29-6.496-77.48-19.091l-32.106 74.375c0-.132-4.112.53-4.776 2.122" fill="#D9D9D9"/><g fill="#D9D8D8"><path d="M25.401 368.585c-1.061-.53-2.388-3.712-2.653-4.243-.265-.928-2.919.265-3.45.928-.53.53.266 1.591.399 2.254.132.663 2.255 2.519 2.122 3.447-.265 1.06-.265 1.989-.265 2.52 0 .53.929 1.325 1.725 1.723.796.397 1.857 2.12 2.786 3.447.928 1.325.663.795 1.194 1.458.53.663 0 1.06.53 3.182.531 2.121 0 0 1.46-.265 1.46-.266 3.45-.133 3.45-.133s-.266 1.458-.266 1.856c-.133.398 0 0-2.123 2.52-2.123 2.518.133.927 1.46 1.855 1.459 1.06 1.326.133 1.326.133l.398.265c.398.265.664.663 2.52 2.254 1.858 1.59 1.195.53 3.848 1.458 2.654 1.06.133.398-.928 1.326-1.062.928-1.327.53-1.327 4.11.133 3.447 1.061 1.723 3.715 4.11 2.653 2.386 2.122 1.325 6.368 4.64 4.245 3.314.398 0 4.245 2.916 3.848 2.917 1.592-.132 3.052-.928 1.46-.795.132-1.325.663-1.988.53-.663 1.061-1.724 2.123-2.784 1.061-.928-.266-1.591-1.858-3.05-1.592-1.458-.53-1.193-.398-3.712.133-2.519-.132-1.723-1.06-3.447-.93-1.723-1.858-.663-6.634-2.651-4.644-1.856-.93-.663-2.654-3.05-1.725-2.386-.929-1.988-.53-4.64.397-2.651-.133-2.519-.93-3.712-.663-1.06-.663-1.06-1.857-1.856-1.061-.663-1.724-1.06-1.724-1.724 0-.662-2.521-3.049-7.96-5.7-5.44-2.652-.93-.663-4.644-1.724-3.715-.663-1.061-.265-2.123-.795M7.49 324.967c.399-1.591 1.062-3.58 1.726-4.64.663-1.06.928-.928 1.592-1.724.663-.928 2.255-3.182 4.51-4.905 0 0-.398-2.387-.928-2.917-.664-.53-1.46-.398-3.45-1.06-1.857-.796-1.857-.796-4.51-1.857-2.654-1.06-1.062-.928-2.654-1.193-1.592-.397-1.725-.928-3.184 0-1.46.928 1.725 3.978.929 7.16-.929 3.049-.664 2.12-.929 4.11-.133 2.12 1.327 4.64 1.327 4.64s.398 1.193.663 2.651c.398 1.326-.398 1.856 0 3.845.398 1.856.398 1.723.929 2.784.53 1.06.663 1.193 1.724 3.977.398 1.193.531 1.856.531 2.121l.398-.795c.133-.663.53-2.652-.398-3.977-.929-1.326-.53-1.194 0-3.315s1.062-1.193 1.592-2.651c.664-1.459-.265-.796.133-2.254"/><path d="M133.13 422.544c8.358 1.988 15.39 3.447 19.237 4.242 0 0-3.45-4.64-4.379-6.629-.928-2.121 3.848-11.004 1.592-15.511-2.255-4.64-4.776-10.076-5.439-11.932-.663-1.856 1.592.928-.663-1.856a90.099 90.099 0 0 0-5.705-6.364c-1.194-1.193-3.715-3.182-4.378-3.712-.664-.398-2.123-.398-2.256-1.856-.265-1.326-.928 0-.398-3.447.398-3.447 4.644-.398-.265-4.64-4.776-4.11-5.705-3.447-5.705-5.038 0-1.591-.398-3.182-.398-3.182s-.929 2.121-4.113-.928c-3.184-2.917-5.306-8.75-4.643-10.341.663-1.591 4.776-2.254 4.776-2.254l32.106-74.376s-12.47-4.11-30.78-10.739c-29.983-10.87-75.621-28.636-106.799-45.739l-.398.796c-.132.398.133.795.266 2.254.398 2.651.663 1.06.53 5.435-.132 4.375 0 0 .796 5.038s2.654 4.64 3.583 4.243c1.06-.398 2.786-.928 5.041-2.652 2.388-1.723 1.592-.53 4.113-.53 2.653 0 1.724.53 3.847-.265 2.256-.796 1.858-.133 2.52 0 .664.132 1.062 1.458 2.256 2.784 1.194 1.326.398.663-.928 3.314-1.327 2.784-.398.928-.664 3.315-.265 2.519 1.194 1.59 1.99 3.447.796 1.988 0 .928-.398 5.038s.664 1.856 1.725 5.038c1.061 3.181.53 5.435 1.194 8.617.663 3.05.53 2.652.398 6.761-.133 4.11-.265 1.061-1.99 8.088-1.725 7.026.133 1.325 1.061 2.386.929 1.06 0 0 2.388 5.966s.93 1.724 2.388 4.508c1.46 2.916.133.663-.663 5.038s0 0-2.653 2.12c-2.654 2.122-.133.664.265 4.376s-1.194.928-3.715 2.254c-2.653 1.325-1.592 1.325-5.705 3.049-.663.265-1.194.53-1.592.663l-.132.265v3.05s-.398 1.192 0 1.855-2.123 3.447-2.123 3.447-.265.265-1.327 1.856c-1.194 1.591-1.194 1.856-2.122 3.182-.929 1.326-.664.928-1.858 2.254s-2.255 1.193-2.255 2.917c0 1.856-.398.663 0 2.784.398 2.121-2.256 1.326 1.194 3.182 3.45 1.856 3.45 1.59 5.041 2.916 1.592 1.326 0 3.447-.265 5.303-.265 1.857 2.653 1.194 3.715 3.713 1.061 2.519.928 4.375 0 5.966-.929 1.59-1.725 2.253-.929 3.447.663 1.193 3.715.397 1.725 2.519-1.99 2.12-2.388 3.712-3.184 5.966-.664 2.253-3.848.265-.664 2.253 3.184 2.122-5.306-.928 4.511 2.917 9.685 3.845 7.43 4.64 11.41 5.038 3.98.398 6.899-3.447 6.368 0-.398 3.447-1.327 2.917 0 5.966 1.327 3.05 0 0 3.184 4.11s3.184 2.121 3.184 4.11c0 2.12-2.255 2.253 0 3.844 2.255 1.591 1.194.266 3.715 1.856 2.52 1.591 3.847-1.325 2.52 1.591-1.326 2.917-3.183 2.122-1.326 4.11 1.857 2.122 2.123 1.856 3.184 2.784 1.194.928 0 3.182 0 3.182l57.313 13.788c3.848 1.193 7.828 2.122 11.675 3.05"/></g><path d="M289.945 339.418s-2.653 3.712-5.041 3.447c-2.388-.265-1.327 1.193-3.184 3.314-1.99 2.121-6.501.928-5.705-2.254.663-3.181 4.113-4.507 4.113-4.507s2.255 3.314 3.316 2.519c1.062-.796 1.592-2.52 1.46-3.447-.266-.928-1.99-3.182-1.46-4.64.531-1.459 3.583-7.955 9.42-9.413l2.388-23.997s-44.179-.928-65.406-6.629l-1.592 6.497s5.97-1.99 7.164-1.591c1.194.265 3.317.928 5.44 2.253 2.122 1.326 5.572 3.05 7.827 3.315 2.388.265 7.96 1.458 7.96 1.458s-7.827-.795-12.47-.265c-4.644.53-5.971 1.989-9.288 1.591-3.184-.398-5.837-1.458-8.093-1.06l-32.77 128.201s24.014 4.375 61.162 7.557c9.154.796 18.839 1.459 29.187 1.989l5.572-104.338z" fill="#D9D8D8"/><g fill="#D9D8D8"><path d="M104.605 145.59c-2.255 5.966.796 3.315 1.327 5.701.53 2.386 1.592 1.06 3.98 1.856s3.052 1.326 1.46 3.182c-1.593 1.856-1.327.795-3.848 5.966-2.653 5.17 0 0 2.388 2.386 2.388 2.387 1.46-.795 2.52 0 1.062.796 0 1.591-2.52 8.618-2.52 7.026-.265 1.59-3.184 3.845-2.919 2.386-1.061 1.06-4.909 5.435-3.847 4.375-1.326.796-4.378 7.027-3.051 6.23 1.46 4.905 1.725 6.496.265 1.59 0 0 5.44 7.822 5.439 7.822.795 2.386 0 7.557-.797 5.17-1.858 3.182-5.706 9.943-3.847 6.762 1.062 1.591 3.185 4.64 2.122 3.182 1.06 1.326 5.174 8.353 4.112 7.026.53 1.856.53 7.822s-3.847 4.11 0 5.435c3.848 1.326 3.317 2.122 6.236 2.387 2.919.265 9.42 3.182 9.42 3.182-4.113 3.182-1.725 11.004-1.725 11.004 18.308 6.628 30.78 10.738 30.78 10.738 42.188 12.728 77.478 19.091 77.478 19.091 21.228 5.834 64.976 7.077 64.976 7.077l6.268-55.865s-44.179-12.462-46.434-13.39c-2.256-.928-7.828-7.16-10.216-9.678-2.388-2.652-.53-1.856-1.857-3.978-1.327-1.988-.929 0-11.277 0-10.348 0-2.123-.928-6.899-5.17-4.909-4.375-1.592-3.447-2.388-7.557-.929-4.11-3.45-2.917-10.879-8.883-7.43-5.833-3.184-4.375-8.889-10.738-5.705-6.364-1.725-2.785-3.98-6.364-2.255-3.58-2.653-3.315-2.786-4.64-.133-1.326 10.746-17.766 11.012-18.296.265-.53.132-1.458 0-1.723-.133-.266-1.46-.266-6.634-3.978s-.53-.795-4.51-2.121c-3.98-1.326 0 0-2.256 3.58s-1.194 0-6.899-1.061c-5.705-1.06-.53-.795 1.061-2.121 1.725-1.193 2.123-.928 1.725-1.989-.398-1.06-1.194-.53-1.46-1.193-.132-.796.664-1.724 2.654-3.712 1.99-2.121.663-1.459.53-2.387-.132-.795-.53.133-3.449 1.724-3.051 1.59 0 0-3.051 1.06-3.051 1.061-.133.398-3.715 5.304-3.582 5.037-.928.397-2.919 0-1.99-.398-.132-.53-.398-4.243-.265-3.712-.398-.398-1.194-2.121-.796-1.724-.265-.928-.53-4.64-.133-3.712.132-1.591 0-3.58-.133-1.989 0-1.856-.664-3.977-.663-2.121-.53-.53-2.122-.133-1.592.53-.398.796-.531 1.326s-2.653 2.652-3.98 4.11c-1.327 1.458-.796.53-3.184 1.989-2.388 1.458 0 0-1.46-1.061-1.459-1.06-.53-.265-1.857-.663s-4.245-.133-11.542 2.121c-7.43 2.254-2.123.398-6.501 0-4.378-.397 0 0 .796-.663s1.46-.795 6.766-1.458c5.307-.663 2.388 0 4.644 0 1.857 0 .928 0 2.388-.53.265-.133.663-.265 1.061-.398 2.919-.795 3.45-2.917 3.715-3.977.132-1.06 1.326-1.459-.796-.928-2.123.53-.664-.133-2.123-1.591-1.46-1.459 0 0-1.99-.265-1.99-.266-1.592.397-3.715 1.06-2.122.663-2.52.265-6.633.53-4.113.266-.929 0-3.45.53-2.52.531-.663.133-4.112 1.061-3.45.928-1.46.133-9.42.928-7.96.796-.53-.265.265-1.06.796-.796.796-.133 2.919-.398s4.113-3.712 4.378-4.508c.265-.795-.663-.265-2.123-1.458-1.459-1.193-1.724-1.193-3.714-1.193s-.664.795-2.256 2.519c-1.724 1.723-1.061.53-4.378 1.458-3.45.928-.796.398-2.52 1.459-1.858 1.193-1.327 1.458-1.858 2.12-.53.531-.398.531-2.123-1.59-1.724-2.121-1.857-.53-1.857-.53s-2.919 2.651-6.236 5.7c-3.449 3.05-1.326.398-3.449 3.05-2.123 2.651-1.061 2.651-3.317 8.617zm106.136 115.077c1.592 1.989.664-.398 3.052-1.458s1.46.132 4.112 1.193c2.654 1.06.796.132 3.583-.53 2.786-.663.663-.663 2.52-1.857 1.858-1.193 2.123.663 5.838.796 3.582.265 1.724-.663 11.542-2.121 9.685-1.459 3.317.795 3.317.795s-.266.53-2.123 2.387c-1.857 1.856-1.857.53-8.756 2.519-7.032 1.988-2.123-.398-6.236 0-4.112.397-1.592 0-5.44.662-3.847.663-1.06 1.326-5.439 5.436-4.378 4.11-2.122.663-4.378.398-2.122-.398-1.194-.265-4.776.928s-1.194 2.121-1.857 4.64c-.664 2.519-4.378.53-6.634 0-2.255-.53-.796-.663-4.776-1.458-3.98-.796 0 0-5.041.53-5.042.53-3.052-.928-5.042-2.121-1.99-1.193-2.255-2.121-4.51-4.508l2.388-2.121s2.786.265 4.908 1.723c2.123 1.459.664.133 4.776-3.712 4.246-3.844.664 0 3.583-.397 2.918-.398.928-.133 4.245 0 3.184.132 1.592-.663 2.255-1.724.664-.928-.398-1.326-2.122-3.58-1.858-2.253-3.184-3.314-5.705-9.147-2.388-5.701.663.397 3.847 1.723s4.511 3.977 5.705 4.905c1.061.929 2.256.398 3.317.663 1.194.53 2.255 3.315 3.847 5.436m-54.66-74.906c6.368-.133 5.44-.53 7.828 0s2.388 1.06 3.98 1.06 7.43 1.194 9.685 1.061c2.255-.132 4.643-.265 7.695-.663 3.051-.53 4.378-1.06 6.235-.397 1.99.663 7.562.663 7.695 1.723s-5.041 1.724-6.633 2.784c-1.593 1.06-2.521 1.326-2.787 2.917-.265 1.59-5.837 3.182 1.46 3.182s7.96-.663 7.96-.663-3.051-1.724 1.194-.53c4.245 1.193 5.838 2.253 4.776 3.844-1.061 1.591-1.99 1.856-3.582 2.387-1.592.663-1.99-.133-1.99 1.458s3.45 2.386-.265 3.05c-3.715.662-1.725 4.64-5.44 0-3.715-4.64-3.051-4.508-3.715-4.64-.663-.133-2.388-.531-3.051 1.59-.663 1.989.133 2.254-.663 4.11-.664 1.856.53 1.458-3.052 2.519-3.45 1.06-1.99.53-4.245 1.59-2.256 1.061-7.695.796-3.848-1.59 3.848-2.386 4.511-1.06 4.91-3.182.53-2.121 1.326-1.989.663-2.784-.664-.663-3.45-.928-3.45-.928-3.184.795-3.184 0-5.44 2.254-2.122 2.254-1.06 6.496-4.377 3.712-3.185-2.784-3.45-3.182-4.511-4.11-.796-.663-2.786-1.724-3.848-2.254-.53 0-.663-.265-.663-.265s.265.133.663.265c.664 0 1.725-.265 3.98-1.458 4.511-2.254 3.185-1.724 4.511-2.254 1.327-.663.929.53 1.99-.928 1.062-1.458.53-4.242.929-3.845.53.398 1.99 2.254 3.847 3.05 1.858.662 2.654 2.253 2.786.662.133-1.59 2.256.133 0-2.784-2.255-2.916-1.724-3.712-3.316-3.712-1.592 0 0-.265-3.317 0s.53 2.387-5.705-.132c-6.103-2.52-7.031-3.182-7.031-3.182s-.398.132-1.592.928c-.93.795-6.634-3.712-.266-3.845M274.29 132.577c-1.592.795-3.317 3.182-4.378 2.652l-1.061-.53s-.53.795.265-2.255c.796-2.916 1.857-3.181.796-4.242-1.061-1.06 0-1.591-2.388-2.121s-2.388-2.52-3.847-1.193c-1.592 1.458 5.44 2.651-2.92 2.651-8.357 0-10.878 4.11-8.357 0 2.653-4.11 4.112-4.64 4.643-5.966.53-1.326 0-3.182-4.113-1.59-4.112 1.59-6.235 2.12-9.154 2.65-2.919.531-2.123-1.06-4.378 1.061-2.388 2.122-3.184 3.845-4.113 6.231-1.061 2.387-.796 1.326-2.653 1.857-1.858.53-4.644-4.64-1.858.53 2.92 5.17 2.654 2.386 2.92 5.17.265 2.917-4.91 4.906 0 4.11 4.908-.795 4.643-1.326 7.03-.795 2.389.53 6.236-1.591 2.123 2.386-4.112 4.11.266 4.64-6.235 3.315-6.5-1.326-8.358-1.856-8.358-1.856s-2.919-2.122-1.062 1.325c1.858 3.315-2.122 1.856 3.184 4.375 5.175 2.652-3.582 2.122 7.032 3.315 10.614 1.326 9.818 0 13.798 1.326 3.847 1.325 3.184-1.857 3.847 1.325.796 3.182 7.297 4.64.796 3.182-6.5-1.59-4.643-1.59-7.827-2.386-3.185-.796-11.41-1.591-15.39-1.591-3.98 0-6.87 1.59-6.87 1.59l41.895 9.811 9.817-32.216s-1.592-2.916-3.184-2.121zM203.18 125.173c.795 1.591 1.326 5.436 1.326 5.436 5.174.795 1.592 3.845 6.5 0 4.91-3.845-1.326-1.856 6.236-5.17 7.562-3.315 0-1.857 7.562-3.315 7.563-1.59 1.858 1.06 7.563-1.59 5.704-2.652-.797-.929 6.766-2.918 7.562-1.988 6.235-1.458 9.817-2.784 3.582-1.325.266 0 3.582-1.325 3.317-1.326 7.828 5.17 3.317-1.326-3.98-5.834-4.51-7.822-4.643-8.22-.531 0-1.062 0-1.858-.133-6.235-.265-6.766 1.061-8.093 0-1.326-1.06.531-.265-2.918-3.58-3.317-3.314-3.582-4.374-4.91-4.904-1.326-.53 4.644-1.326-4.112-1.326-8.889 0-11.41-2.917-12.736 0-1.327 2.916 3.582 0-.796 4.375s-6.766 5.17-8.89 6.761c-2.122 1.591-2.918-2.916-2.653 3.845.266 6.761 4.511 6.098 1.062 8.485-3.45 2.386-5.572 1.59-4.776 3.712 1.061 2.254 1.857 2.386 2.653 3.977M269.381 77.446c-1.06 2.12-1.06-.796-1.06 2.12 0 2.918-4.91 5.171-4.91 5.171s-.265-.53-1.592.265c-1.326.796-4.909.53-1.857 2.122 3.184 1.59 7.031-.53 3.184 1.59-3.847 2.122-3.184-1.06-3.847 2.122-.797 3.182-3.317 2.917.796 3.845 4.112 1.06-1.062 2.651 4.112 1.06 5.174-1.59 3.184-3.049 6.501-2.784 3.317.265 2.388 0 5.174 1.989 2.919 2.121 6.501 2.121 6.501 2.121-3.051 1.326 0 2.121-4.909 2.386-4.908.266-6.766-1.06-8.093 0-1.326 1.061-3.847-.795-2.653 2.122 1.327 2.916-3.847 1.856 1.327 2.916 5.174 1.06 1.061 1.06 5.97 0s2.123-2.12 7.031-1.856c4.91.265 4.91.53 6.767 0 1.459-.397 2.653-2.386 3.051-3.182.133-.132.133-.265.133-.265v-4.64s-5.44-.928-6.236-1.59l-.796-.531s-.53-1.326-.53-2.652 1.326.53 0-1.326c-1.327-1.856-1.593-.265-2.654-2.916-1.061-2.652-2.52-4.11-2.52-4.11s.663.795-.93 0c-1.591-.796 0-1.06-2.918-2.386-2.654-1.326-3.98-3.713-5.042-1.591M244.174 74.661c1.061.929 1.061-1.458 3.184-3.049 2.123-1.59.266 1.326 2.654 4.906 2.388 3.58 0 0 3.316-3.182 0 0 2.123 1.59 3.184.795 1.062-.795 1.327-1.06 5.175-1.06 3.847 0 0 0-.266 1.59-.265 1.591 0 1.591 4.378-1.325 4.378-2.917 2.388-1.856 4.378-5.436 2.123-3.58 0 0 1.858-1.59 1.857-1.592 2.123-1.592 2.919-5.171.796-3.58 0 0-4.379-.266-4.378-.265 0 0-4.112-.53-4.113-.53 0 0-4.644 1.06-4.643 1.061-1.592 1.327-6.5 4.641-4.91 3.314 0 0-6.236 1.326s-3.848.53-6.236 1.59c-2.52 1.194.266 4.773 1.327 5.701M259.83 81.555c0-1.193-1.99-3.314-1.99-3.314-1.593.796-2.124 2.121-3.45 2.652-1.327.53-3.052 0-3.052 1.59 0 1.591 2.388 3.182 3.317 2.387.929-.796.133-.265 2.123-1.591 1.99-1.458 3.051-.53 3.051-1.724M288.884 67.767c7.562 1.326 7.562 5.171 7.562 1.326 0-3.844 1.592-5.7 0-5.7s-4.378 2.651-1.592 0c2.786-2.652 7.562-1.326 2.919-2.652-4.644-1.326-1.592-2.386-4.644-1.326-3.184 1.06-3.184.53-4.643 1.856-1.592 1.326-3.184 2.121-3.184 2.121 1.725 2.652-3.98 3.182 3.582 4.375M302.682 56.764c0-.266-.133-.796-.266-2.387-.265-2.651-1.592-1.988-5.174-2.916-4.378-1.061-4.909 5.17-4.909 5.17l2.123-.53c2.123-.53 2.123 1.59 2.123 1.59l6.103-.795c-.133 0-.133-.132 0-.132"/></g><path d="M330.863 446.142c9.022.398 16.186.398 17.114 0 0 0 .398-2.254 2.654-2.386l-.133-6.629-.929-40.966 53.732-54.224s-9.608-1.856-13.19-4.11c-3.582-2.387-7.031-1.06-8.623 0-1.592 1.06-7.563 2.651-8.89 2.917-1.326.265 2.123-2.917.531-6.762-1.592-3.845-5.174-13.258-6.766-14.583-1.592-1.326-3.317-2.652-5.44-2.652-2.122 0-6.765-2.386-6.765-3.182 0-.795-1.592-4.905-.266-10.076 0 0-48.026.266-59.038-2.916l-2.388 23.996s.398 0 1.061 1.326c.664 1.458-.663 1.59 0 2.519.796.928 1.858 1.06 2.123 2.519.398 1.458-4.245 3.845-6.103 8.485l-5.572 104.338m39.27-37.785c-2.786-.132-.265-.662-3.051-.795-2.786-.265-.53-.398-1.194-3.314-.663-2.917-.663-.663-2.786-3.447-2.123-2.785-1.061-.663-1.99-1.591-1.061-1.061.663-1.459 1.592-3.447.796-1.99-.398-.398-1.725-.398-1.326 0-1.857-.53-5.041-1.326-3.184-.795-.796 0-3.45.796-2.653.795-.398 1.06.398 2.916.664 1.856.664 1.06 1.194 3.447.531 2.387 0 .796-1.99 4.375-1.99 3.58-.398.796.133 1.459.53.53.796 1.59 1.99 3.58 1.327 1.988.53.132 2.52.53 1.99.397 0 0 3.98 1.325 3.981 1.326.266.663-.397 3.05-.663 2.386.133 1.06 1.194 4.905 1.061 3.712 1.327 1.856 3.317 4.242 1.99 2.387.796 1.326 2.255 3.845 1.327 2.52 0 0-2.123 1.989-2.122 1.988-2.255.398-6.633-.398-4.378-.663-.398-.663 0-2.254.398-1.59-.133-.795-.929-2.651-.796-1.856-.663-1.326-.53-4.64.132-3.182.397-2.52.265-4.773-.133-2.254-.796 0-3.317-1.459-2.52-1.458-.398-1.193-2.52-3.181-2.256-1.99-.664.132-2.92.132-2.255.133-.663-.795-.53-3.314.133-2.52.796-4.508 1.857-6.762 1.062-2.254.796-1.856-.663-4.375-1.46-2.651-.663.398-1.99 1.591-1.327 1.326 0 .928-1.46 3.315-1.459 2.386-.663.132-.796.132-.265.133-2.786 1.591-3.582-.132-.796-1.857.133-1.326-.796-3.58-.796-2.254-.398-2.121-.398-4.508.133-2.386 1.062.53 2.521.266 1.327-.266.663-.398 1.327-2.122.796-1.856 0 0-1.194-.795-1.194-.796-.664-.53-1.327-1.856-.663-1.326.133-.398 4.644-2.254 4.643-1.856.398-.265.398-2.121 0-1.856.53-1.591 2.653-4.64 2.123-3.05 1.592-.796 5.174-.53 3.715.397 1.061 1.06.796 3.446-.265 2.52-1.46 1.591-4.245 4.375-2.786 2.784-.664 1.193-.796 1.856-.133.663.928.398 4.908 2.254 3.98 1.989.531 0 3.052-.795 2.388-.796.928-1.326 1.725-3.712.796-2.387.398-1.326 1.194-3.447.796-2.122 1.194-.266 5.174-2.917 3.98-2.652.663-.928 4.245-4.11 3.582-3.182.265.663 2.388 3.977 2.123 3.447.266 1.326-1.061 4.11-1.327 2.784-.664 1.591 0 3.05.663 1.458 1.194 1.325 2.653 3.579 1.46 2.254.664.928 1.46 3.977.796 3.05.53 1.193 1.857 3.05 1.327 1.856.663 1.06 1.99 4.772s.796 1.591 1.327 6.364c.663 4.773.132 1.591 1.46 3.447 1.326 1.856.264.398.795 1.989.53 1.59.398 1.06 1.327 4.64.928 3.712.265.53 1.725 7.292 1.459 6.628-.664 1.59-3.052 4.375-2.388 2.784-.796-.133-3.715-1.061-3.051-1.06-.265-1.326.664-3.182 1.061-1.856-.531-2.784-1.327-5.303-.796-2.519-.133-2.386.796-5.17 0 0-1.46-1.194-3.051-1.591-1.592-.398-.796-.398-1.46-2.254-.663-1.989 0-.663.398-3.977.398-3.182-.398-.663-1.592-.796-1.46.133-.928.53-3.715.53" fill="#D9D8D8"/><g fill="#D9D8D8"><path d="M723.113 317.675c-3.052-3.58-3.582.53-17.115-2.651-13.532-3.182 0 0-5.174-5.038s-3.051-1.194-12.47-3.182c0 0-4.644-1.06-18.707-2.387-14.063-1.325-4.113-3.844-10.348-8.484-6.236-4.64 0 0-9.42-1.99-9.42-1.988-3.582 1.46-11.94 0-8.359-1.457-2.123-2.12-3.582-5.833-1.592-3.58-5.175-3.58-14.063-10.87-8.89-7.293 0 0-5.175-1.194-5.174-1.193-3.184-4.508-7.296-10.208-4.113-5.701 0 0-2.654-2.652-2.653-2.652-7.297-.928-9.42-2.254-2.122-1.326-4.908-1.723-4.908-1.723.53.265 0 2.916.796 3.977.69 1.084 18.424 113.494 18.424 113.494l104.528-38.473 5.34-5.418c2.786-3.315 3.051-1.591 6.235-4.11 3.184-2.784.664-3.314.133-7.424-.53-4.11 0 0-3.184-3.58zM797.01 377.335c-2.919-11.534 1.327-9.148-2.919-11.534-4.245-2.387-4.378-5.303-7.43-3.845-3.05 1.458-3.316 3.314-4.643 2.784-1.326-.663-1.724 2.784-2.52-3.845-.797-6.629 3.98-8.617-.93-6.496-4.908 2.121-5.04 5.7-5.704 3.845-.796-1.989-.133-5.17-1.99-7.292-1.857-2.121-1.725-5.7-4.378-3.182-2.786 2.52-.663.928-5.174 5.038s-4.113 6.364-5.174 1.326c-1.062-5.038 1.459-8.087-1.725-6.496-3.184 1.458-3.052 2.386-5.572 4.242-2.521 1.856 1.724 5.7-2.521 1.856-4.245-3.977-2.786-7.424-5.44-7.557-2.786-.132-4.908.265-5.04-.795-.134-1.06 1.856-1.459 1.06-3.315-.796-1.856-3.184-3.58-3.184-3.58s-.928-1.988.398-3.049c1.327-1.06-3.316-6.23-4.908-3.181 0 0-.93-1.194-2.92 1.458-1.99 2.784-2.918 4.11-3.05 5.7-.133 1.724-.93-1.325 0 3.58.928 5.038 2.52 1.856 1.326 6.63-1.194 4.905-1.592 3.579-1.857 8.75-.133 5.17-.133 4.64 1.99 8.75s4.51 3.049 2.123 8.352c-2.389 5.303-4.113 3.977-1.858 8.352 2.256 4.375-9.95 5.436 2.256 4.375 12.338-1.06 9.154 2.254 14.593-1.06 5.44-3.315-2.388.132 6.368-3.58 8.757-3.845 3.45-1.458 8.757-3.845 5.306-2.254 2.122 1.459 7.827-3.314 5.705-4.906 5.042-11.8 5.705-4.906.796 7.027 1.99 6.232 0 9.28-1.99 3.05-3.317 3.448-3.184 5.304.133 1.856-3.317 6.231 2.52 1.989 5.97-4.243 4.644-.663 6.103-5.038 1.327-4.375.133-1.326 1.99-5.17 1.858-3.846-.796-4.243 1.858-3.846 2.52.398 1.061 1.326 2.786 3.978 1.725 2.519-3.317 4.11 3.051 2.916 6.368-1.193 3.98-.132 7.297-1.193 3.45-.928 6.899 9.148 4.113-2.386"/></g><path d="M683.312 439.513c1.592-.928 1.194-1.193 2.255-2.386 1.194-1.193.266-.265 1.062-1.193.132-1.989-.133-4.11-.266-6.099-.398 0-.663-.132-1.061-.397-1.592-1.194 1.46-.796-3.317-3.182-4.776-2.254-4.51-2.784-6.368-4.11-1.99-1.326-2.653 2.651-2.786-1.459-.133-4.11.796-7.556.133-8.22-.664-.662 0-5.17-2.787-.795-2.786 4.243-.928 8.883-4.776 5.834-3.847-3.182-2.122-4.906-5.572-5.436-.53.398-1.061.795-1.725 1.193-7.429 5.17-1.592.265-6.5 2.254-4.91 1.989-1.592.928-4.511 1.59-2.919.664-3.582.929-7.164 2.652-3.582 1.591 0 0-2.919 2.254s.663 3.58 0 5.966c0 0 1.061-.795 2.919 0 1.857.796 3.847.796 4.776 2.387.928 1.458.663.53.928 4.64.266 4.11 0 5.435 1.858 7.424 1.857 1.989-.53 1.591 2.653 2.917 3.184 1.326 1.99 1.326 4.511 1.988 2.52.663 2.52-3.447 3.45 0 .928 3.447.132 4.243.928 5.304.266.265.133.53 0 .662.266-.132.929-.265 2.256-.662 2.918-.663 2.653-.266 3.582-.398.398-.133 1.194-.265 2.653-.663 4.643-1.458 3.184 1.989 5.97-1.989 2.786-3.977-.663-2.916 4.113-6.098 4.776-3.315 3.98-2.917 5.705-3.978" fill="#D9D8D8"/><path d="M732.532 411.01c-5.174 2.12-3.45 5.568-6.368 3.181-2.919-2.386-2.52-2.784-4.378-6.761-1.857-3.845.265-7.027-1.857-3.845-2.123 3.182-3.98.928-2.654 5.568 1.327 4.64 2.521 3.845 1.99 7.69-.53 3.977-1.592 4.773-1.99 5.568-.53.795 4.113-1.591-1.46 2.121-5.571 3.712-5.173 4.64-6.898 4.243-1.857-.265.53-1.856-2.786-.53-3.317 1.325-2.919 3.446-5.837 2.65-2.92-.795-2.123-.132-3.848-1.325-1.592-1.193 2.786-2.519-3.317-1.59-2.918.397-4.51 1.06-5.572 1.325.133 1.856.398 3.845.398 5.7 1.725 1.857 1.725 2.387-.265 3.978-2.123 1.591-7.695 4.508-2.654 2.254 5.175-2.121 2.787-2.652 7.563-2.652s4.112-.928 4.776 0c.663.928 3.317 1.989-.796 2.917-4.113.928-1.592-.133-5.838 1.458-4.245 1.591-3.98-.265-5.307 3.58-1.326 3.977 1.858 3.182-1.459 6.364s-4.776 2.386-5.572 4.507c-.796 2.122-2.52 2.652-.53 4.906 1.99 2.253-4.246 2.916 4.245 4.242 8.623 1.326 5.97 6.364 9.685 1.326 3.847-5.17 5.97.53 4.112-6.762-1.857-7.291-2.122-6.098-.796-10.738 1.327-4.64-2.918-4.243 2.123-4.773 5.174-.53-1.194 2.917 6.501-.663 7.562-3.58 4.909-.265 9.022-4.242 4.112-3.978 4.245-2.52 4.908-4.906.664-2.519-3.45-1.193 1.194-3.182 4.644-1.988 3.45.133 4.644-1.988s-1.592.663 1.46-3.447c3.183-4.243 3.183-1.06 3.847-5.17.663-4.11 2.122-4.11 3.582-7.425 1.724-2.917 5.306-5.7.132-3.58M570.41 468.45c3.582-.795 10.105-4.033 12.493-.188 2.255 3.845 5.284 5.191 3.029 5.721 0 0 2.388-.662 6.634-1.988 4.245-1.326-.266-.928 6.102-1.989.796-.132 1.592-.132 2.123-.132 3.715.265 1.857 3.181 6.899.132 4.51-2.784 3.051-.53 4.113-1.59.265-.266.796-.929 1.724-1.99 2.92-3.446 3.317-3.446 4.113-4.905.265-.663.663-1.458 1.46-2.917 2.255-4.905 2.918-4.507 2.918-6.76 0-2.255-1.326.132 0-5.57 1.327-5.7 0-1.192 1.99-7.689 1.99-6.496 0-7.424 2.654-9.015 2.653-1.59-3.582-1.989 2.653-1.59 6.103.264 7.164 2.386 7.828-.133.663-2.52-2.92-3.713 0-5.966 2.918-2.254-.664-.663 2.918-2.254 3.582-1.591 4.246-1.989 7.165-2.652 2.918-.663-.266.265 4.51-1.59 4.91-1.99-.928 2.916 6.501-2.254.663-.398 1.194-.796 1.725-1.194 5.705-3.712 5.837-2.651 7.96-6.23 2.255-3.845 3.184-5.436 3.184-5.436s.929-1.591-1.327-2.917c-2.255-1.326-3.582-3.58-6.766-1.989s-2.918 1.989-9.021 3.845c-6.103 1.856-8.359 3.58-8.359 3.58s-1.326.265-3.847 1.988c-2.653 1.591-1.99.133-4.909 2.652-2.918 2.519-3.184 2.254-5.174 4.507-1.99 2.254-.663.663-4.245 5.17-3.582 4.509-2.654 5.437-5.44 8.353-2.918 2.917-4.909 4.508-4.909 4.508s.266-11.004 1.592-15.247c1.327-4.242-.928-2.784 2.654-7.424 3.582-4.507 4.643-3.977 7.43-6.23 2.918-2.255-.399 2.253 2.918-2.255 3.184-4.507.929-2.651 4.246-7.159 3.184-4.508-4.91 0 3.184-4.508 8.093-4.507 2.255-1.988 14.195-5.17 11.94-3.182 9.685-1.59 15.523-4.242 5.837-2.652-.266.662 8.093-3.182 8.358-3.845 5.174-1.326 11.011-4.906 5.838-3.58 2.256-.265 8.358-5.435 6.103-5.17 6.103-2.652 8.093-6.762 1.99-4.242-.663-3.844 1.99-7.822 2.654-3.845 1.327-1.988 5.174-6.496 3.848-4.508 5.838-7.424 5.838-7.424l-4.245-4.508s-2.92 1.326-7.828 2.917c-4.909 1.59-3.847 2.651-10.083 4.242-6.103 1.591 0 .928-9.021 3.182-9.022 2.254-11.277 1.989-14.196 3.845-2.919 1.988-4.909 2.916-5.44 4.242-.663 1.326 3.582 2.917-2.918 1.989l-6.501-.928s2.919 0-1.592-.928-4.909.663-5.174-2.652c-.266-3.314.663-7.424-1.327-5.568-1.99 1.989-1.99 1.989-2.653 3.58-.664 1.59 1.326 9.015 1.326 9.015s0 3.58-1.326 3.58c-1.327 0-.664 1.59-3.848-.266-3.184-1.988-.929-2.651-3.184-1.988-2.255.662-1.99 4.905-4.51 2.916-2.654-1.988-1.593.663-3.848-3.58-2.256-4.242-.266-5.435-3.184-5.435-2.919 0 0 2.652-4.511.663-4.51-1.989-5.44-1.989-7.164-3.845-1.592-1.988-1.99-2.917-4.246-4.507-2.255-1.591-4.51.928-2.653-5.436 1.99-6.496 0-7.822 3.582-8.087 3.582-.265 0 .265 5.837 0 5.838-.265 2.92 3.977 8.093-.133 5.174-4.11 2.654-.265 5.174-4.11 2.654-3.844 1.99 0 2.654-3.844.663-3.845-.929-2.652 1.327-6.497 2.255-3.844 8.358-1.326 2.255-6.496-6.103-5.17-11.277-8.087-11.277-8.087s-.265 3.845-2.255 0c-1.99-3.845-2.92-2.652-4.246-6.099-1.326-3.58.664-5.435-1.99-5.435-2.653 0-.929 5.17-4.909 0-3.847-5.17-3.847-5.17-4.51-7.16l-.664-1.988s-1.99-.928-3.847-2.652c-1.99-1.59.663.663-4.511-4.242-5.174-4.906-7.164-7.16-8.093-8.618-.663-1.06-.265-3.712-.796-3.977-.265-.133-.53.133-1.194 1.193-2.255 3.315-.265 10.739-.265 10.739 1.592 6.098 4.245 4.507.928 7.822-3.184 3.182-2.255 2.651-4.378 4.905-2.122 2.254-.53 1.591-2.122 3.58-1.592 1.989.265 2.651-3.184 2.651-3.583 0-1.99.928-3.583 0-1.592-.928 1.592 1.326-1.592-.928-3.184-2.253.93-1.988-3.184-2.253-4.245-.266-4.908-1.99-6.766-.266-1.99 1.591.664 8.088-1.99 1.591-2.653-6.496-1.99-8.087-3.582-8.75-1.592-.663-2.255-1.988-3.582-2.651-1.327-.663-.929 1.988-1.592-2.652-.663-4.507-4.51-7.954-5.44-7.822-.928.133 0-3.05 0-3.05s-3.847-.795-6.766 0c-2.918.796.266 3.978-4.909 0-5.174-3.976-4.51-5.567-7.164-5.965-2.653-.265-2.918-3.58-9.42-2.652-6.5 1.06-6.765 0-10.082 0-3.184 0 .265-2.651-5.174 0-5.44 2.652-3.184 2.652-7.43 2.254-4.245-.265-1.327-.663-6.766-.663-5.44 0-4.909-1.326-7.828.663l-2.918 1.989s-.266-1.724 0 1.59c.265 3.315.928 3.713 2.653 5.834 1.592 2.121 4.51.398 1.592 5.568-2.919 5.17-6.5 3.58-4.378 7.16 2.123 3.58 2.123 2.253 3.715 3.844 1.592 1.591 1.99-.663 3.582 3.58 1.592 4.242 3.582-3.58 1.592 4.242-1.99 7.822 0 4.11-2.255 10.076-2.256 6.099-9.42 3.447-2.256 6.099 7.164 2.651-8.358-5.834 9.42 2.651 17.778 8.353 19.768 5.834 19.768 9.015 0 3.182-1.99.266 0 5.436s2.918 1.326 2.255 8.087c-.663 6.762-2.919 11.27-5.838 14.849-2.918 3.58-2.653 3.58-5.439 5.436-2.919 1.988-1.592 1.59-5.174 3.58-3.582 1.988-3.582 6.893-2.919 7.954.663 1.06-.265 1.06 3.582 6.23 3.848 5.171 2.919 3.846 5.44 8.353 2.653 4.508-1.327-1.326 2.653 4.508 3.98 5.833 4.246.663 3.848 5.833-.266 5.17-1.99 5.436-2.654 8.087-.663 2.652-2.919-1.325-.663 2.652 2.255 3.845 5.307 1.458 2.255 5.833l-5.02 5.227s7.696 39.64 14.196 46.8c6.236 7.424 12.206 16.97 22.687 15.909 10.614-1.06 23.063-3.733 26.645-4.528z" fill="#D9D8D8"/><path d="M361.852 451.445c5.97 1.06 1.592.796 5.175-.53 3.582-1.326 1.06 0 7.694-.795 6.634-.796 1.592.265 7.165 4.905 5.704 4.64 0 0 7.164 2.121 5.041 1.458 3.582.796 2.653-.795-.398-.663-.663-1.459-.133-2.254 1.593-2.784 1.327-.796 4.91-1.591 3.316-.663 1.857.398 8.623 4.11.53.265 1.194.663 1.857 1.06 9.022 4.64 1.327.53 5.97.266 4.644-.266 1.062-1.856 3.582-7.955 2.521-6.231 2.256-3.05 7.165-5.17 4.908-2.122 3.582 1.59 10.348 1.723 6.633.133 2.52.928 6.235 0 3.582-.928 1.592 1.193 4.378 3.712 2.787 2.52 3.848 3.05 5.97 3.58 2.123.53.531 1.325 3.583 5.17 3.051 3.845 0 0 2.52-2.121 2.521-2.121 2.521-.795 4.379-.53 1.857.265 2.255 3.58 2.52 4.375.266.795.266 1.06.796 7.954.531 6.894.531 3.05 2.521 3.58 2.123.53 2.52.265 11.144.795 8.491.53 2.388 1.856 7.43 5.17 5.174 3.315 0 0 2.52-1.855 2.521-1.856 2.521-.53 9.287-1.591 6.634-1.06 2.256 0 5.175 0 2.918 0 1.326-.265 7.43-1.326 6.235-1.06 1.591.796 6.235 3.845 4.643 3.05 1.592 1.856 4.378 3.845 2.786 2.12.265 1.06 2.122 7.689 1.858 6.629-.796 2.519-2.122 3.314-1.327.796 0 0-7.96-1.59-7.96-1.591-3.317-1.857-6.236-2.52-2.786-.795 0 0 .53 2.254.531 2.254 1.327 2.52 2.256 4.64 1.061 2.122-1.327 1.592-3.582 6.895-2.255 5.435 0 0 0 3.58 0 3.579 0 0-1.061 6.23-1.062 6.231-.796 1.06-2.256 1.06-1.592 0 0 1.857-2.255 4.641-2.256 2.784 0 0-5.44 10.341s0 0 5.175 1.326c5.174 1.326 3.582-1.06 6.5-5.17 2.786-4.11 2.123-3.845 5.705-5.171s2.786 0 7.695 0c4.909 0 2.255-1.326 4.378-3.05 2.123-1.855 2.123-1.855 7.96-3.844 5.97-2.121 3.317.265 5.705 0 .663-.133 1.061-.133 1.327-.398.663-.53.265-1.458 1.061-3.712.53-1.59.266-2.121-.132-2.254-.398-.132-.93 0-.93 0s-3.581.265-6.898 0c-3.317-.265.265-1.856 1.857-4.905 1.592-3.05 1.592-1.326 3.317-2.121 1.858-.796 1.858-2.122 7.164-4.64 5.307-2.52 1.592-.266 5.97.265 4.379.53 2.123 1.06 6.236 2.253 4.113 1.326 1.857-1.59.53-5.17 0-.133-.132-.265-.132-.265.663 0 1.725 0 3.184-.133 3.051-.53 1.327-1.59 3.847-3.314 2.521-1.856 1.592-.265 4.379-1.591a6.47 6.47 0 0 0 .928-.398c1.592-.663.664-.398 2.521-1.856 2.123-1.856 1.592-1.591 3.317-3.58 1.857-2.12 2.388-2.519 4.378-4.375 1.99-1.856 4.113-1.06 6.5-1.59 2.256-.53 1.327-3.845-1.06-7.69-2.389-3.845-10.88-1.591-14.462-.796-3.582.796-14.195 5.436-24.676 6.497-10.614 1.06-16.451-8.485-22.952-15.644-6.501-7.16-14.196-46.8-14.196-46.8s-1.327-.265-2.52-1.989c-1.327-1.723-3.052 0-3.052 0s-1.061.133-5.705-6.761c-4.643-6.894-2.123-1.591-8.756-3.845-6.634-2.254-2.123-1.59-3.848-4.905-1.857-3.315-.796-1.326-4.378-2.784-3.582-1.591 0 0-4.112-3.05-4.113-3.049.796-2.519 1.592-6.894s-1.062-1.59-3.848-7.954c-2.786-6.496-1.592-4.64-2.52-7.955-1.062-3.314-1.327-2.519-3.848-5.17-2.52-2.52-1.857-1.06-7.695-1.591-5.97-.53-3.582.265-6.766.795-3.051.53-4.643 1.06-8.756 3.05-4.113 2.12-1.592-1.061-4.378-3.315s-1.062.53-3.98 0c-2.92-.53-2.786-.795-14.594-3.05-11.808-2.253-1.857-1.325-6.634-3.579-4.908-2.254-2.122-1.59-3.316-2.916-1.327-1.459-2.521-1.459-4.91-3.447-2.255-2.122-3.98-1.99-3.98-1.99l-53.73 54.225.928 40.966 4.246-1.326c1.857-.53 2.52-.795 2.918-.928.398.796 3.317 6.762 3.848 8.485.53 1.856 0 0-4.113 5.17-.398.531-.663.929-1.061 1.194.132.133.398.265.663.265.796.133 2.653.663 5.44 1.193" fill="#D9D8D8"/><g stroke="#FFF"><path d="M352.958 303.526c-32.219 0-101.885-4.014-123.112-9.715M194.025 434.343l32.77-128.202s-7.43 5.17-9.155 3.58c-1.725-1.724-3.184 0-3.184 0l.929-4.906s2.918 2.121 5.837 0c2.654-1.856 6.368-3.977 7.032-4.375l1.592-6.496s-35.29-6.496-77.48-19.091M225.761 157.104l41.896 9.81 9.817-32.216"/><path d="M152.367 426.786s-3.45-4.64-4.379-6.629c-.928-2.121 3.848-11.004 1.592-15.511-2.255-4.64-4.776-10.076-5.439-11.932-.663-1.856 1.592.928-.663-1.856a90.099 90.099 0 0 0-5.705-6.364c-1.194-1.193-3.715-3.182-4.378-3.712-.664-.398-2.123-.398-2.256-1.856-.265-1.326-.928 0-.398-3.447.398-3.447 4.644-.398-.265-4.64-4.776-4.11-5.705-3.447-5.705-5.038 0-1.591-.398-3.182-.398-3.182s-.929 2.121-4.113-.928c-3.184-2.917-5.306-8.75-4.643-10.341.663-1.591 4.776-2.254 4.776-2.254l32.106-74.376s-12.47-4.11-30.78-10.739c-29.983-10.87-75.621-28.636-106.799-45.739M330.863 446.142c9.022.398 16.186.398 17.114 0 0 0 .398-2.254 2.654-2.386l-.133-6.629-.929-40.966 53.732-54.224s-9.608-1.856-13.19-4.11c-3.582-2.387-7.031-1.06-8.623 0-1.592 1.06-7.563 2.651-8.89 2.917-1.326.265 2.123-2.917.531-6.762-1.592-3.845-5.174-13.258-6.766-14.583-1.592-1.326-3.317-2.652-5.44-2.652-2.122 0-6.765-2.386-6.765-3.182 0-.795-1.592-4.905-.266-10.076m-59.038-2.916l-2.388 23.996s.398 0 1.061 1.326c.664 1.458-.663 1.59 0 2.519.796.928 1.858 1.06 2.123 2.519.398 1.458-4.245 3.845-6.103 8.485l-5.572 104.338"/><path d="M117.607 128.223s-2.919 2.651-6.236 5.7c-3.449 3.05-1.326.398-3.449 3.05-2.123 2.651-1.061 2.651-3.317 8.617-2.255 5.966.796 3.315 1.327 5.701.53 2.386 1.592 1.06 3.98 1.856s3.052 1.326 1.46 3.182c-1.593 1.856-1.327.795-3.848 5.966-2.653 5.17 0 0 2.388 2.386 2.388 2.387 1.46-.795 2.52 0 1.062.796 0 1.591-2.52 8.618-2.52 7.026-.265 1.59-3.184 3.845-2.919 2.386-1.061 1.06-4.909 5.435-3.847 4.375-1.326.796-4.378 7.027-3.051 6.23 1.46 4.905 1.725 6.496.265 1.59 0 0 5.44 7.822 5.439 7.822.795 2.386 0 7.557-.797 5.17-1.858 3.182-5.706 9.943-3.847 6.762 1.062 1.591 3.185 4.64 2.122 3.182 1.06 1.326 5.174 8.353 4.112 7.026.53 1.856.53 7.822s-3.847 4.11 0 5.435c3.848 1.326 3.317 2.122 6.236 2.387 2.919.265 9.42 3.182 9.42 3.182-4.113 3.182-1.725 11.004-1.725 11.004m173.234 36.906l6.268-55.865s-44.179-12.462-46.434-13.39c-2.256-.928-7.828-7.16-10.216-9.678-2.388-2.652-.53-1.856-1.857-3.978-1.327-1.988-.929 0-11.277 0-10.348 0-2.123-.928-6.899-5.17-4.909-4.375-1.592-3.447-2.388-7.557-.929-4.11-3.45-2.917-10.879-8.883-7.43-5.833-3.184-4.375-8.889-10.738-5.705-6.364-1.725-2.785-3.98-6.364-2.255-3.58-2.653-3.315-2.786-4.64-.133-1.326 10.746-17.766 11.012-18.296M717.408 335.706l-4.245-4.508s-2.92 1.326-7.828 2.917c-4.909 1.59-3.847 2.651-10.083 4.242-6.103 1.591 0 .928-9.021 3.182-9.022 2.254-11.277 1.989-14.196 3.845-2.919 1.988-4.909 2.916-5.44 4.242-.663 1.326 3.582 2.917-2.918 1.989l-6.501-.928s2.919 0-1.592-.928-4.909.663-5.174-2.652c-.266-3.314.663-7.424-1.327-5.568-1.99 1.989-1.99 1.989-2.653 3.58-.664 1.59 1.326 9.015 1.326 9.015s0 3.58-1.326 3.58c-1.327 0-.664 1.59-3.848-.266-3.184-1.988-.929-2.651-3.184-1.988-2.255.662-1.99 4.905-4.51 2.916-2.654-1.988-1.593.663-3.848-3.58-2.256-4.242-.266-5.435-3.184-5.435-2.919 0 0 2.652-4.511.663-4.51-1.989-5.44-1.989-7.164-3.845-1.592-1.988-1.99-2.917-4.246-4.507-2.255-1.591-4.51.928-2.653-5.436 1.99-6.496 0-7.822 3.582-8.087 3.582-.265 0 .265 5.837 0 5.838-.265 2.92 3.977 8.093-.133 5.174-4.11 2.654-.265 5.174-4.11 2.654-3.844 1.99 0 2.654-3.844.663-3.845-.929-2.652 1.327-6.497 2.255-3.844 8.358-1.326 2.255-6.496-6.103-5.17-11.277-8.087-11.277-8.087s-.265 3.845-2.255 0c-1.99-3.845-2.92-2.652-4.246-6.099-1.326-3.58.664-5.435-1.99-5.435-2.653 0-.929 5.17-4.909 0-3.847-5.17-3.847-5.17-4.51-7.16l-.664-1.988s-1.99-.928-3.847-2.652c-1.99-1.59.663.663-4.511-4.242-5.174-4.906-7.164-7.16-8.093-8.618-.663-1.06-.265-3.712-.796-3.977-.265-.133-.53.133-1.194 1.193"/></g><g transform="translate(385.071 312.412)"><mask id="b" fill="#fff"><use xlink:href="#a"/></mask><use xlink:href="#a"/><path fill="#FFF" mask="url(#b)" d="M.949 0h299.742v212.194H.949z"/><g mask="url(#b)"><path d="M-408.421 6.412c10.426-3.86 3.09 0 22.397-2.316 19.308-2.317 4.634.772 20.853 14.286 16.604 13.513 0 0 20.852 6.177 14.674 4.247 10.427 2.317 7.723-2.316-1.158-1.931-1.93-4.248-.386-6.564 4.634-8.108 3.862-2.317 14.288-4.634 9.654-1.93 5.406 1.159 25.1 11.97 1.545.772 3.476 1.93 5.407 3.089 26.258 13.513 3.861 1.544 17.377.772 13.515-.772 3.09-5.406 10.426-23.167 7.337-18.147 6.565-8.88 20.853-15.058 14.287-6.177 10.426 4.634 30.12 5.02 19.308.386 7.337 2.702 18.15 0 10.426-2.703 4.633 3.475 12.743 10.81 8.109 7.337 11.198 8.881 17.377 10.426 6.178 1.544 1.544 3.86 10.426 15.058 8.882 11.197 0 0 7.337-6.178s7.337-2.317 12.743-1.544c5.407.772 6.565 10.424 7.337 12.741.773 2.317.773 3.089 2.317 23.167 1.545 20.077 1.545 8.88 7.337 10.424 6.179 1.545 7.337.773 32.438 2.317 24.714 1.544 6.95 5.406 21.625 15.058 15.06 9.653 0 0 7.337-5.405 7.337-5.406 7.337-1.545 27.03-4.634 19.309-3.088 6.565 0 15.06 0 6.37 0 2.601-23.305 10.813-32.848 2.74-3.184 12.056 1.934 16.605 1.938 4.793.004 6.488 1.707 12.243 1.707.498 1.994-1.673 7.1 1.893 9.443 4.135 2.717 5.345 6.917 6.795 9.552 3.289 5.976 7.609 6.533 9.149 14.842 2.235 6.5 1.199 8.022 9.397 14.408-4.024 9.146-1.939 9.557-5.8 11.874-1.872 1.123-9.399 1.023-14.143-2.728-2.859-2.26-9.338-2.695-12.759-5.714-2.614-2.306-3.456-7.91-8.628-8.944-1.107-.221-.892-9.998-4.447-14.757-2.926-3.918-7.912-2.478-8.374-2.448-2.132.14-2.758 5.662 0 11.74 2.624 5.781 8.594 12.075 8.374 14.41-.711 7.556-9.919 16.136-9.919 16.136s4.248 24.711-2.316 40.155c-6.565 15.83 0 0 0 10.425s0 0-3.09 18.147c-3.089 18.147-2.317 3.089-6.564 3.089-4.634 0 0 5.405-6.565 13.514-6.565 8.108 0 0-15.833 30.116-15.832 30.116 0 0 15.06 3.861s10.427-3.089 18.922-15.058c8.11-11.97 6.179-11.197 16.605-15.058 10.426-3.861 8.11 0 22.397 0 5.774 0 .423-3.432-1.466-8.34-.503-1.31 1.466-4.967 1.466-4.967s1.842-2.006 1.88-2.812c.122-2.623 7.002-4.345 7.002-4.345s5.193.357 8.198-.667c3.34-1.188 2.674-1.696 7.13-2.2 4.455-.505 9.005-.777 9.005-.777l7.75.776 4.792-5.354-3.53-7.387s-3.06-1.907-5.928-2.538c-1.916-.422-6.385 0-8.573 0-2.187 0-5.91-.7-7.016-1.511-.646-.475-.8-3.384 0-5.264.8-1.88 2.621-3.65 2.621-3.65s1.773-3.39 3.361-4.939c1.589-1.549 5.84-2.056 6.523-2.056 1.604-2.05 2.086-3.131 3.084-4.355 2.837-3.478 5.794-3.795 8.399-4.866 2.32-.954 7.083-2.246 9.448-3.337 6.456-.524 10.156-2.395 20.285-3.227 10.129-.833 2.415-1.545 15.158 0 12.743 1.544 4.028 1.535 15.999 5.01 2.59-2.307 2.91-3.904 3.309-5.712.519-2.346.955-2.3 3.012-4.704 0-.386 4.101 0 4.101 0 .843-2.15 1.459-3.145 5.707-3.531 2.317-.403.685 2.792 2.045 3.531.695.378 7.577-3.744 8.165-6.94.562-3.058 6.066-4.075 8.717-5.89 3.595-3.519 8.464-9.176 9.236-9.562 4.634-1.93-3.14 1.543 2.267-2.705 6.178-5.405 4.634-4.633 9.654-10.424 5.406-6.178 6.95-7.336 12.743-12.742 5.792-5.405 11.97-3.089 18.922-4.633 6.564-1.545 3.861-11.197-3.09-22.394-6.95-11.198-31.664-4.634-42.09-2.317-10.427 2.317-16.877-29.73-47.383-26.641C105.67 25.33 105.942 6.026 87.02-14.824c-18.921-20.85-83.024-99.23-83.024-99.23s-3.861-.771-7.337-5.79c-3.861-5.02-8.881 0-8.881 0s-3.09.385-16.605-19.692c-13.516-20.078-6.179-4.633-25.487-11.197-19.308-6.564-6.178-4.634-11.198-14.286-5.406-9.653-2.317-3.861-12.743-8.109-10.427-4.633 0 0-11.971-8.88s2.317-7.336 4.634-20.078c2.316-12.741-3.09-4.633-11.2-23.166-8.108-18.92-4.633-13.514-7.336-23.166-3.09-9.653-3.862-7.336-11.199-15.059-7.337-7.336-5.406-3.088-22.397-4.633-17.377-1.544-10.426.772-19.694 2.317-8.882 1.544-13.516 3.089-25.486 8.88-11.971 6.178-4.634-3.089-12.744-9.652-8.109-6.564-3.089 1.544-11.584 0-8.496-1.545-8.11-2.317-42.478-8.88-34.368-6.565-5.406-3.862-19.308-10.426-14.288-6.564-6.178-4.633-9.654-8.494-3.861-4.247-7.337-4.247-14.288-10.039-6.564-6.178-11.584-5.791-11.584-5.791L-460.94-152.278l2.703 119.307 12.358-3.86c5.406-1.545 7.337-2.317 8.495-2.704 1.158 2.317 9.654 19.692 11.199 24.711 1.544 5.406 0 0-11.971 15.058-1.159 1.545-1.931 2.703-3.09 3.475.387.387 1.159.773 1.931.773 2.317.386 7.723 1.93 15.833 3.475 17.377 3.088 4.634 2.316 15.06-1.545z" fill="#D9D8D8"/><path d="M180.464 62.575c8.419-3.48 14.383-2.067 22.227-3.81 10.426-2.316 12.743-7.387 19.694 3.81v11.677s12.357-1.638 24.714-5.5c12.357-3.86-.772-2.702 17.763-5.791 2.317-.386 4.634-.386 6.179-.386 10.812.772 6.571 3.096 22.011 3.096s11.971 3.088 15.06 0c.773-.773-2.703-10.046 0-13.135 8.496-10.039 9.654-10.039 11.971-14.286.772-1.93 1.931-4.247 4.248-8.494 6.565-14.286 8.495-13.128 8.495-19.692s-3.861.386 0-16.216c3.862-16.603 0-3.475 5.793-22.394 5.792-18.92 0-21.622 7.723-26.256 7.723-4.633-10.426-5.791 7.723-4.633 17.763.772 20.853 6.95 22.783-.386 1.931-7.336-8.495-10.811 0-17.375 8.496-6.564-1.93-1.93 8.496-6.564 10.426-4.633 12.357-5.791 20.853-7.722 8.495-1.93-.773.772 13.129-4.633 14.288-5.792-2.703 8.494 18.922-6.564 1.93-1.158 3.475-2.317 5.02-3.475 16.605-10.81 16.99-7.722 23.17-18.147 6.564-11.197 9.267-15.83 9.267-15.83s2.703-4.634-3.861-8.495c-6.565-3.86-10.427-10.425-19.695-5.791-9.267 4.633-8.495 5.791-26.258 11.197-17.764 5.405-24.328 10.425-24.328 10.425s-3.862.772-11.199 5.791c-7.723 4.634-5.792.386-14.288 7.723-8.495 7.336-9.268 6.563-15.06 13.127-5.792 6.564-1.93 1.93-12.357 15.058-10.426 13.128-7.723 15.83-15.833 24.325-8.495 8.494-14.287 13.128-14.287 13.128s.772-32.047 4.633-44.403c3.862-12.355-2.703-8.108 7.724-21.622 10.426-13.127 13.515-11.583 21.625-18.147 8.495-6.563-1.159 6.564 8.495-6.563 9.268-13.128 2.703-7.723 12.357-20.85 9.268-13.128-14.288 0 9.268-13.128 23.556-13.127 6.565-5.791 41.319-15.058 34.754-9.267 28.19-4.633 45.18-12.355 16.991-7.723-.772 1.93 23.556-9.267s15.06-3.861 32.051-14.286c16.991-10.425 6.565-.772 24.328-15.83 17.764-15.059 17.764-7.722 23.556-19.692 5.792-12.355-1.93-11.197 5.792-22.78 7.723-11.197 3.862-5.792 15.06-18.92 11.2-13.127 16.991-21.621 16.991-21.621l-12.357-13.128s-8.495 3.861-22.783 8.494c-14.288 4.634-11.199 7.723-29.348 12.356-17.763 4.633 0 2.703-26.259 9.266-26.259 6.564-32.823 5.792-41.319 11.197-8.495 5.792-14.288 8.495-15.832 12.356-1.931 3.861 10.426 8.494-8.496 5.792l-18.922-2.703s8.496 0-4.633-2.703c-13.13-2.703-14.288 1.93-15.06-7.722-.773-9.653 1.93-21.622-3.862-16.217-5.793 5.792-5.793 5.792-7.723 10.425-1.931 4.634 3.861 26.256 3.861 26.256s0 10.424-3.861 10.424c-3.862 0-1.931 4.634-11.199-.772-9.268-5.791-2.703-7.722-9.268-5.791-6.565 1.93-5.792 14.286-13.13 8.494-7.722-5.792-4.633 1.93-11.198-10.425-6.564-12.355-.772-15.83-9.268-15.83-8.495 0 0 7.722-13.129 1.93-13.13-5.791-15.833-5.791-20.853-11.197-4.633-5.791-5.792-8.494-12.357-13.128-6.564-4.633-13.129 2.703-7.723-15.83 5.793-18.92 0-22.78 10.426-23.552 10.427-.773 0 .772 16.991 0 16.991-.773 8.496 11.583 23.556-.387 15.06-11.969 7.723-.772 15.06-11.969 7.723-11.197 5.793 0 7.723-11.197 1.931-11.197-2.703-7.722 3.862-18.92 6.565-11.196 24.328-3.86 6.565-18.918-17.764-15.059-32.824-23.553-32.824-23.553s-.772 11.197-6.564 0c-5.793-11.197-8.496-7.722-12.357-17.76-3.862-10.426 1.93-15.831-5.793-15.831s-2.703 15.058-14.288 0c-11.198-15.058-11.198-15.058-13.13-20.85l-1.93-5.792s-5.792-2.702-11.199-7.722c-5.792-4.633 1.931 1.93-13.129-12.355-15.06-14.286-20.852-20.85-23.556-25.097-1.93-3.089-.772-10.811-2.317-11.583-.772-.386-1.544.386-3.475 3.475-6.565 9.652-.772 31.274-.772 31.274 4.634 17.761 12.357 13.128 2.703 22.78-9.268 9.267-6.565 7.723-12.743 14.287-6.179 6.563-1.545 4.633-6.179 10.424-4.634 5.792.772 7.723-9.268 7.723-10.426 0-5.792 2.702-10.426 0-4.634-2.703 4.634 3.86-4.634-2.703-9.268-6.564 2.703-5.792-9.268-6.564-12.357-.772-14.288-5.792-19.694-.772-5.792 4.633 1.93 23.552-5.792 4.633-7.723-18.92-5.793-23.552-10.427-25.483-4.633-1.93-6.564-5.792-10.426-7.722-3.861-1.93-2.703 5.792-4.634-7.722-1.93-13.128-13.13-23.167-15.832-22.78-2.703.386 0-8.881 0-8.881s-11.199-2.317-19.694 0c-8.496 2.317.772 11.583-14.288 0s-13.13-16.216-20.853-17.375c-7.723-.772-8.495-10.425-27.417-7.722-18.922 3.089-19.694 0-29.348 0-9.268 0 .772-7.722-15.06 0-15.833 7.722-9.268 7.722-21.625 6.564-12.357-.772-3.862-1.93-19.694-1.93-15.833 0-14.288-3.862-22.784 1.93l-8.495 5.791s-.772-5.019 0 4.634c.772 9.652 2.703 10.81 7.723 16.988 4.634 6.178 13.13 1.159 4.634 16.217-8.495 15.058-18.922 10.425-12.743 20.85 6.178 10.425 6.178 6.564 10.812 11.197 4.634 4.633 5.793-1.93 10.427 10.425 4.633 12.355 10.426-10.425 4.633 12.355-5.792 22.78 0 11.97-6.564 29.344-6.565 17.761-27.418 10.039-6.565 17.761 20.853 7.722-24.328-16.989 27.417 7.722 51.746 24.325 57.538 16.989 57.538 26.256 0 9.266-5.792.772 0 15.83s8.495 3.861 6.565 23.552c-1.931 19.692-8.496 32.82-16.991 43.244-8.496 10.425-7.724 10.425-15.833 15.83-8.495 5.792-4.634 4.634-15.06 10.426-10.426 5.791-10.426 20.077-8.496 23.166 1.931 3.089-.772 3.089 10.427 18.147 11.198 15.058 8.495 11.197 15.832 24.325 7.723 13.128-3.861-3.861 7.723 13.128 11.585 16.988 12.357 1.93 11.199 16.988-.772 15.058-5.792 15.83-7.723 23.553-1.93 7.722-8.496-3.861-1.93 7.722 6.564 11.197 15.445 4.247 6.564 16.989l-8.882 12.355S49.123-21.378 68.046-.528c4.621 5.506 9.49 14.725 11.485 18.438 1.995 3.713 6.303 5.865 8.47 8.855 2.168 2.99 10.418 4.622 14.289 5.33 3.87.708 10.523-1.128 16.104 1.648 5.581 2.775 11.298 6.38 14.262 10.26 2.964 3.878 7.684 6.933 12.337 10.743 4.654 3.81 10.016 8.325 14.913 7.829 7.65-.765 17.787 1.145 20.558 0z" fill="#D9D8D8"/><path d="M68.502-.274c4.622 5.506 9.49 14.726 11.485 18.438 1.995 3.713 6.304 5.865 8.471 8.856 2.168 2.99 10.418 4.622 14.288 5.33 3.87.708 10.524-1.128 16.105 1.647 5.58 2.776 11.298 6.381 14.262 10.26 2.963 3.878 7.684 6.934 12.337 10.743 4.653 3.81 10.016 8.325 14.912 7.83 7.65-.766 17.788 1.145 20.559 0 8.418-3.48 14.382-2.067 22.226-3.81 10.427-2.317 12.744-7.388 19.695 3.81v11.676s12.357-1.638 24.714-5.499c12.357-3.86-.773-2.703 17.763-5.791 2.317-.387 4.634-.387 6.179-.387 10.812.773 6.57 3.096 22.01 3.096" stroke="#FFF" stroke-width="2"/></g></g><text font-family="LFT Etica" font-size="9" font-weight="313" fill="#8D8D8D"><tspan x="518.229" y="497">Greater Toronto Area, Ottawa &amp; Montreal</tspan></text><path stroke="#7D7D7D" d="M385.071 312.412h300v194h-300z"/><g font-weight="313" font-family="LFT Etica" letter-spacing="1" font-size="9" fill="#ACACAC"><text transform="translate(60 190)"><tspan x="12" y="136">BC</tspan> </text><text transform="translate(60 190)"><tspan x=".5" y="8">YT</tspan> </text><text transform="translate(60 190)"><tspan x="273" y="60">N</tspan> <tspan x="280.309" y="60">U</tspan></text><text transform="translate(60 190)"><tspan x="627" y="104">N</tspan> <tspan x="634.309" y="104">L</tspan></text><text transform="translate(60 190)"><tspan x="652.5" y="263">N</tspan> <tspan x="659.809" y="263">S</tspan></text><text transform="translate(60 190)"><tspan x="117" y="45">N</tspan> <tspan x="124.309" y="45">T</tspan></text><text transform="translate(60 190)"><tspan x="111" y="132">AB</tspan> </text><text transform="translate(60 190)"><tspan x="184" y="164">SK</tspan> </text><text transform="translate(60 190)"><tspan x="261.5" y="169">MB</tspan> </text><text transform="translate(60 190)"><tspan x="400" y="207">O</tspan> <tspan x="407.849" y="207">NTARIO</tspan></text><text transform="translate(60 190)"><tspan x="479.5" y="150">Q</tspan> <tspan x="487.349" y="150">UBEC</tspan></text></g></g></svg>