<?xml version="1.0" encoding="UTF-8" standalone="no"?>
<svg width="301px" height="195px" viewBox="0 0 301 195" version="1.1" xmlns="http://www.w3.org/2000/svg" xmlns:xlink="http://www.w3.org/1999/xlink" xmlns:sketch="http://www.bohemiancoding.com/sketch/ns">
    <!-- Generator: Sketch 3.4.4 (17249) - http://www.bohemiancoding.com/sketch -->
    <title>Ontario Quebec insert</title>
    <desc>Created with Sketch.</desc>
    <defs>
        <rect id="path-1" x="3.12638804e-12" y="0" width="300" height="194"></rect>
    </defs>
    <g id="Page-1" stroke="none" stroke-width="1" fill="none" fill-rule="evenodd" sketch:type="MSPage">
        <g id="Group" sketch:type="MSLayerGroup" transform="translate(-386.000000, -312.000000)">
            <g id="Ontario-Quebec-insert" transform="translate(386.071006, 312.412403)">
                <mask id="mask-2" sketch:name="Mask" fill="white">
                    <use xlink:href="#path-1"></use>
                </mask>
                <use id="Mask" sketch:type="MSShapeGroup" xlink:href="#path-1"></use>
                <rect id="Rectangle-1" fill="#FFFFFF" sketch:type="MSShapeGroup" mask="url(#mask-2)" x="0.949367089" y="0" width="299.74192" height="212.193888"></rect>
                <g id="Quebec-+-Ontario" mask="url(#mask-2)" sketch:type="MSShapeGroup">
                    <g transform="translate(-461.353987, -569.321708)">
                        <path d="M572.139189,638.07426 C603.031879,634.985405 633.538411,621.471664 643.964694,619.155022 C654.390977,616.838381 679.105129,610.274564 686.055984,621.471664 C692.620681,632.668763 695.70995,642.321435 689.145253,643.865863 C689.145253,643.865863 696.096109,641.935328 708.453185,638.07426 C720.810261,634.213191 707.680868,635.371511 726.216482,632.282656 C728.533433,631.896549 730.850385,631.896549 732.39502,631.896549 C743.207461,632.668763 737.801241,641.163115 752.475268,632.282656 C765.604662,624.174412 761.356917,630.738229 764.446186,627.649374 C765.218503,626.87716 766.763138,624.946626 769.466248,621.857771 C777.961738,611.818992 779.120214,611.818992 781.437166,607.571816 C782.209483,605.641282 783.367959,603.32464 785.684911,599.077465 C792.249607,584.79151 794.1804,585.949831 794.1804,579.386014 C794.1804,572.822197 790.318814,579.772121 794.1804,563.169525 C798.041987,546.566929 794.1804,559.694563 799.97278,540.775326 C805.765159,521.856089 799.97278,519.153341 807.695952,514.520058 C815.419125,509.886776 797.269669,508.728455 815.419125,509.886776 C833.182422,510.658989 836.271691,516.8367 838.202484,509.500669 C840.133277,502.164638 829.706994,498.689676 838.202484,492.125859 C846.697974,485.562042 836.271691,490.195325 846.697974,485.562042 C857.124257,480.92876 859.05505,479.770439 867.55054,477.839905 C876.04603,475.90937 866.778222,478.612118 880.679933,473.206622 C894.967802,467.415019 877.976823,481.700974 899.601706,466.642805 C901.532499,465.484485 903.077134,464.326164 904.621768,463.167843 C921.226589,452.356851 921.612748,455.445706 927.791286,445.02082 C934.355982,433.823721 937.059093,429.190438 937.059093,429.190438 C937.059093,429.190438 939.762203,424.557155 933.197507,420.696087 C926.63281,416.835018 922.771224,410.271201 913.503417,414.904483 C904.235609,419.537766 905.007927,420.696087 887.24463,426.101583 C869.481333,431.507079 862.916636,436.526469 862.916636,436.526469 C862.916636,436.526469 859.05505,437.298682 851.718036,442.318072 C843.994863,446.951354 845.925657,442.704179 837.430167,450.040209 C828.934677,457.37624 828.16236,456.604026 822.36998,463.167843 C816.577601,469.73166 820.439187,465.098378 810.012904,478.226012 C799.586621,491.353646 802.289732,494.056394 794.1804,502.550745 C785.684911,511.045096 779.892531,515.678379 779.892531,515.678379 C779.892531,515.678379 780.664848,483.631508 784.526435,471.276088 C788.388021,458.920668 781.823324,463.167843 792.249607,449.654103 C802.67589,436.526469 805.765159,438.070896 813.87449,431.507079 C822.36998,424.943262 812.716014,438.070896 822.36998,424.943262 C831.637787,411.815628 825.073091,417.221125 834.727056,404.093491 C843.994863,390.965857 820.439187,404.093491 843.994863,390.965857 C867.55054,377.838223 850.55956,385.174254 885.313837,375.907689 C920.068113,366.641124 913.503417,371.274406 930.494396,363.552269 C947.485376,355.830131 929.722079,365.482803 954.050073,354.285703 C978.378066,343.088604 969.110259,350.424635 986.101239,339.999749 C1003.09222,329.574863 992.665935,339.227535 1010.42923,324.169367 C1028.19253,309.111199 1028.19253,316.447229 1033.98491,304.477916 C1039.77729,292.122496 1032.05412,293.280817 1039.77729,281.69761 C1047.50046,270.500511 1043.63887,275.906007 1054.83747,262.778373 C1066.03607,249.650739 1071.82845,241.156388 1071.82845,241.156388 L1059.47138,228.028754 C1059.47138,228.028754 1050.97589,231.889823 1036.68802,236.523105 C1022.40015,241.156388 1025.48942,244.245243 1007.33996,248.878525 C989.576666,253.511808 1007.33996,251.581274 981.081177,258.145091 C954.82239,264.708907 948.257693,263.936694 939.762203,269.34219 C931.266713,275.133793 925.474334,277.836541 923.929699,281.69761 C921.998906,285.558679 934.355982,290.191962 915.43421,287.489213 L896.512437,284.786465 C896.512437,284.786465 905.007927,284.786465 891.878533,282.083717 C878.74914,279.380969 877.590664,284.014251 876.818347,274.361579 C876.04603,264.708907 878.74914,252.739594 872.956761,258.145091 C867.164381,263.936694 867.164381,263.936694 865.233588,268.569976 C863.302795,273.203259 869.095174,294.825244 869.095174,294.825244 C869.095174,294.825244 869.095174,305.25013 865.233588,305.25013 C861.372002,305.25013 863.302795,309.883412 854.034988,304.477916 C844.767181,298.686313 851.331877,296.755778 844.767181,298.686313 C838.202484,300.616847 838.974801,312.972267 831.637787,307.180664 C823.914615,301.389061 827.003884,309.111199 820.439187,296.755778 C813.87449,284.400358 819.66687,280.925396 811.17138,280.925396 C802.67589,280.925396 811.17138,288.647534 798.041987,282.855931 C784.912593,277.064328 782.209483,277.064328 777.189421,271.658831 C772.555517,265.867228 771.397041,263.16448 764.832345,258.531197 C758.267648,253.897915 751.702951,261.233946 757.109172,242.700815 C762.901551,223.781578 757.109172,219.92051 767.535455,219.148296 C777.961738,218.376082 767.535455,219.92051 784.526435,219.148296 C801.517414,218.376082 793.021924,230.731502 808.082111,218.762189 C823.142297,206.792876 815.805284,217.989975 823.142297,206.792876 C830.86547,195.595776 828.934677,206.792876 830.86547,195.595776 C832.796263,184.398677 828.16236,187.873639 834.727056,176.676539 C841.291753,165.47944 859.05505,172.81547 841.291753,157.757302 C823.528456,142.699134 808.46827,134.204782 808.46827,134.204782 C808.46827,134.204782 807.695952,145.401882 801.903573,134.204782 C796.111193,123.007683 793.408083,126.482645 789.546497,116.443866 C785.684911,106.01898 791.47729,100.613484 783.754117,100.613484 C776.030945,100.613484 781.051007,115.671652 769.466248,100.613484 C758.267648,85.5553156 758.267648,85.5553156 756.336855,79.7637124 L754.406062,73.9721092 C754.406062,73.9721092 748.613682,71.2693611 743.207461,66.2499716 C737.415082,61.6166891 745.138255,68.180506 730.078068,53.8945515 C715.017881,39.608597 709.225502,33.04478 706.522392,28.7976044 C704.591599,25.7087493 705.750074,17.9866118 704.20544,17.214398 C703.433123,16.8282911 702.660805,17.6005049 700.730012,20.6893599 C694.165316,30.3420319 699.957695,51.9640171 699.957695,51.9640171 C704.591599,69.7249336 712.314771,65.091651 702.660805,74.744323 C693.392998,84.0108881 696.096109,82.4664606 689.917571,89.0302775 C683.739033,95.5940945 688.372936,93.6635601 683.739033,99.4551632 C679.105129,105.246766 684.51135,107.177301 674.471225,107.177301 C664.044943,107.177301 668.678846,109.880049 664.044943,107.177301 C659.411039,104.474553 668.678846,111.03837 659.411039,104.474553 C650.143232,97.9107357 662.114149,98.6829495 650.143232,97.9107357 C637.786156,97.138522 635.855363,92.1191325 630.449142,97.138522 C624.656762,101.771805 632.379935,120.691042 624.656762,101.771805 C616.93359,82.8525674 618.864383,78.2192849 614.230479,76.2887505 C609.596576,74.3582161 607.665783,70.4971473 603.804196,68.5666129 C599.94261,66.6360785 601.101086,74.3582161 599.170293,60.8444753 C597.2395,47.7168415 586.0409,37.6780626 583.337789,38.0641695 C580.634679,38.4502764 583.337789,29.1837113 583.337789,29.1837113 C583.337789,29.1837113 572.139189,26.86707 563.643699,29.1837113 C555.148209,31.5003525 564.416016,40.7669176 549.35583,29.1837113 C534.295643,17.6005049 536.226437,12.9672223 528.503264,11.8089017 C520.780091,11.0366879 520.007774,1.38401596 501.086001,4.08676412 C482.164229,7.17561915 481.391911,4.08676412 471.737946,4.08676412 C462.470138,4.08676412 472.510263,-3.63537347 456.677759,4.08676412 C440.845255,11.8089017 447.409952,11.8089017 435.052876,10.6505811 C422.6958,9.8783673 431.19129,8.72004667 415.358786,8.72004667 C399.526282,8.72004667 401.070917,4.85897787 392.575427,10.6505811 L384.079937,16.4421842 C384.079937,16.4421842 383.30762,11.4227948 384.079937,21.0754668 C384.852254,30.7281388 386.783047,31.8864594 391.803109,38.0641695 C396.437013,44.2418795 404.932503,39.2224901 396.437013,54.2806584 C387.941523,69.3388267 377.51524,64.7055441 383.693778,75.1304299 C389.872316,85.5553156 389.872316,81.6942468 394.50622,86.3275294 C399.140123,90.9608119 400.298599,84.396995 404.932503,96.7524151 C409.566406,109.107835 415.358786,86.3275294 409.566406,109.107835 C403.774027,131.888141 409.566406,121.077148 403.00171,138.451958 C396.437013,156.212874 375.584447,148.490737 396.437013,156.212874 C417.289579,163.935012 372.109019,139.224172 423.854276,163.935012 C475.599532,188.259745 481.391911,180.923715 481.391911,190.19028 C481.391911,199.456845 475.599532,190.962494 481.391911,206.020662 C487.184291,221.07883 489.887401,209.881731 487.956608,229.573181 C486.025815,249.264632 479.461118,262.392266 470.965628,272.817152 C462.470138,283.242038 463.242456,283.242038 455.133125,288.647534 C446.637635,294.439137 450.499221,293.280817 440.072938,299.07242 C429.646655,304.864023 429.646655,319.149977 431.577448,322.238832 C433.508241,325.327688 430.805131,325.327688 442.003731,340.385856 C453.202331,355.444024 450.499221,351.582955 457.836235,364.710589 C465.559407,377.838223 453.974649,360.84952 465.559407,377.838223 C477.144166,394.826926 477.916484,379.768757 476.758008,394.826926 C475.98569,409.885094 470.965628,410.657308 469.034835,418.379445 C467.104042,426.101583 460.539345,414.518377 467.104042,426.101583 C473.668739,437.298682 482.550387,430.348759 473.668739,443.090286 L464.78709,455.445706 C464.78709,455.445706 487.184291,570.891663 506.106063,591.741434 C524.255519,613.363419 541.632657,641.163115 572.139189,638.07426" id="Quebec" fill="#BFBFBF"></path>
                        <path d="M37.872697,577.278326 C55.2498353,580.367181 42.5066005,579.594967 52.9328835,575.733899 C63.3591664,571.87283 56.0221525,575.733899 75.3300839,573.417257 C94.6380154,571.100616 79.9639875,574.189471 96.1826499,587.703212 C112.787471,601.216953 96.1826499,587.703212 117.035216,593.880922 C131.709244,598.128098 127.461499,596.197563 124.758388,591.564281 C123.599912,589.633746 122.827595,587.317105 124.37223,585.000464 C129.006133,576.892219 128.233816,582.683823 138.660099,580.367181 C148.314065,578.436647 144.06632,581.525502 163.76041,592.336494 C165.305044,593.108708 167.235838,594.267029 169.166631,595.42535 C195.425417,608.93909 173.028217,596.969777 186.543769,596.197563 C200.059321,595.42535 189.633038,590.792067 196.970052,573.031151 C204.307066,554.884127 203.534749,564.150692 217.822618,557.972982 C232.110487,551.795272 228.248901,562.606265 247.942991,562.992372 C267.250922,563.378479 255.280005,565.69512 266.092446,562.992372 C276.518729,560.289624 270.72635,566.467334 278.835681,573.803364 C286.945012,581.139395 290.034281,582.683823 296.212819,584.22825 C302.391357,585.772678 297.757454,588.089319 306.639102,599.286418 C315.520751,610.483518 306.639102,599.286418 313.976116,593.108708 C321.31313,586.930998 321.31313,590.792067 326.719351,591.564281 C332.125572,592.336494 333.284048,601.989166 334.056365,604.305808 C334.828682,606.622449 334.828682,607.394663 336.373317,627.47222 C337.917951,647.549778 337.917951,636.352679 343.710331,637.897106 C349.888869,639.441534 351.047345,638.66932 376.147656,640.213747 C400.861808,641.758175 383.098511,645.619244 397.772539,655.271916 C412.832725,664.924588 397.772539,655.271916 405.109553,649.866419 C412.446567,644.460923 412.446567,648.321992 432.140657,645.233137 C451.448588,642.144282 438.705353,645.233137 447.200843,645.233137 C455.696333,645.233137 451.062429,644.460923 468.825726,641.372068 C486.975182,638.283213 473.45963,643.688709 486.975182,652.569168 C500.490734,661.449626 491.609085,657.974664 499.718417,663.766267 C507.827748,669.943977 500.490734,666.855122 505.896955,686.160466 C511.303175,705.46581 503.580003,693.496497 499.718417,695.813138 C495.85683,698.129779 499.718417,695.813138 476.548899,691.179856 C453.379381,686.546573 466.894933,685.774359 458.399443,683.843825 C450.290112,681.527184 458.399443,683.843825 459.944078,690.407642 C461.488712,696.971459 463.805664,697.743672 466.508775,703.921383 C469.598044,710.099093 462.647188,708.554665 456.082492,723.99894 C449.517795,739.829322 456.082492,723.99894 456.082492,734.423826 C456.082492,744.848712 456.082492,734.423826 452.993223,752.570849 C449.903954,770.717873 450.676271,755.659704 446.428526,755.659704 C441.794622,755.659704 446.428526,761.065201 439.863829,769.173445 C433.299133,777.28169 439.863829,769.173445 424.031325,799.289782 C408.198822,829.406118 424.031325,799.289782 439.091512,803.15085 C454.151698,807.011919 449.517795,800.061995 458.013285,788.092682 C466.122616,776.123369 464.191823,776.895583 474.618106,773.034514 C485.044389,769.173445 482.727437,773.034514 497.015306,773.034514 C511.303175,773.034514 503.580003,769.173445 509.758541,764.154056 C515.937079,758.748559 515.937079,758.748559 532.928059,752.956956 C550.305197,746.779246 542.582024,753.72917 549.53288,752.956956 C551.463673,752.570849 552.622149,752.570849 553.394466,751.798636 C555.325259,750.254208 554.166783,747.55146 556.483735,740.987643 C558.02837,736.35436 557.256052,734.809933 556.097576,734.423826 C554.939101,734.037719 553.394466,734.423826 553.394466,734.423826 C553.394466,734.423826 542.968183,735.19604 533.314217,734.423826 C523.660252,733.651612 534.086535,729.01833 538.720438,720.137871 C543.354342,711.257413 543.354342,716.276803 548.374404,713.960161 C553.780625,711.64352 553.780625,707.782451 569.22697,700.446421 C584.673315,693.11039 573.860873,699.674207 586.604108,701.218634 C599.347343,702.763062 592.782646,704.307489 604.753564,707.782451 C616.724481,711.64352 610.159784,703.149169 606.298198,692.724283 C606.298198,692.338176 605.912039,691.952069 605.912039,691.952069 C607.842833,691.952069 610.932102,691.952069 615.179847,691.565962 C624.061495,690.021535 619.041433,686.93268 626.378447,681.91329 C633.715461,676.507794 631.01235,681.141077 639.121682,677.280008 C640.280157,676.893901 641.052475,676.507794 641.824792,676.121687 C646.458695,674.191153 643.755585,674.963367 649.161806,670.716191 C655.340344,665.310695 653.795709,666.082908 658.815772,660.291305 C664.221992,654.113595 665.766627,652.955275 671.559006,647.549778 C677.351386,642.144282 683.529924,644.460923 690.480779,642.916496 C697.045476,641.372068 694.342365,631.719396 687.39151,620.522297 C680.440655,609.325197 655.726503,615.889014 645.30022,618.205655 C634.873937,620.522297 603.981246,634.036037 573.474715,637.124892 C542.582024,640.213747 525.591045,612.414052 506.669272,591.564281 C487.747499,570.714509 465.350299,455.268552 465.350299,455.268552 C465.350299,455.268552 461.488712,454.496339 458.013285,449.476949 C454.151698,444.45756 449.131636,449.476949 449.131636,449.476949 C449.131636,449.476949 446.042367,449.863056 432.526815,429.785498 C419.011263,409.707941 426.348277,425.152216 407.040346,418.588399 C387.732414,412.024582 400.861808,413.955116 395.841746,404.302444 C390.435525,394.649772 393.524794,400.441376 383.098511,396.1942 C372.672228,391.560917 383.098511,396.1942 371.127593,387.313742 C359.156676,378.433283 373.444545,379.977711 375.761497,367.236184 C378.078449,354.494657 372.672228,362.602901 364.562897,344.069771 C356.453565,325.150534 359.928993,330.55603 357.225883,320.903359 C354.136614,311.250687 353.364296,313.567328 346.027282,305.84519 C338.690269,298.50916 340.621062,302.756335 323.630082,301.211908 C306.252944,299.66748 313.203799,301.984121 303.935992,303.528549 C295.054344,305.072976 290.42044,306.617404 278.449523,312.409007 C266.478605,318.586717 273.815619,309.320152 265.706288,302.756335 C257.596957,296.192518 262.617019,304.300763 254.121529,302.756335 C245.626039,301.211908 246.012198,300.439694 211.64408,293.875877 C177.275962,287.31206 206.237859,290.014808 192.336148,283.450991 C178.048279,276.887174 186.15761,278.817709 182.682183,274.95664 C178.820596,270.709464 175.345169,270.709464 168.394313,264.917861 C161.829617,258.740151 156.809555,259.126258 156.809555,259.126258 L0.415310006,417.043971 L3.11842041,536.350997 C3.11842041,536.350997 3.11842041,536.350997 15.4754965,532.489928 C20.8817173,530.945501 22.8125105,530.173287 23.9709863,529.78718 C25.1294622,532.103821 33.6249521,549.478631 35.1695866,554.49802 C36.7142211,559.903517 35.1695866,554.49802 23.1986691,569.556189 C22.0401932,571.100616 21.2678759,572.258937 20.1094001,573.031151 C20.4955587,573.417257 21.2678759,573.803364 22.0401932,573.803364 C24.357145,574.189471 29.7633658,575.733899 37.872697,577.278326" id="Ontario" fill="#A2A2A2"></path>
                    </g>
                </g>
                <ellipse id="McGill" fill="#FFFF99" sketch:type="MSShapeGroup" mask="url(#mask-2)" cx="264.959429" cy="35.5088864" rx="9.36205892" ry="9.36149508"></ellipse>
                <ellipse id="Ottawa" fill="#FF7F00" sketch:type="MSShapeGroup" mask="url(#mask-2)" cx="169.466428" cy="62.0331225" rx="9.36205892" ry="9.36149508"></ellipse>
                <ellipse id="Queens" fill="#CAB2D6" sketch:type="MSShapeGroup" mask="url(#mask-2)" cx="146.919469" cy="124.365077" rx="9.36205892" ry="9.36149508"></ellipse>
                <ellipse id="Waterloo" fill="#A6CEE3" sketch:type="MSShapeGroup" mask="url(#mask-2)" cx="34.1846762" cy="162.82522" rx="9.36205892" ry="9.36149508"></ellipse>
                <ellipse id="Ryerson" fill="#6A3D9A" sketch:type="MSShapeGroup" mask="url(#mask-2)" cx="66.0156766" cy="153.541737" rx="9.36205892" ry="9.36149508"></ellipse>
                <ellipse id="Toronto" fill="#FDBF6F" sketch:type="MSShapeGroup" mask="url(#mask-2)" cx="80.604885" cy="129.669924" rx="9.36205892" ry="9.36149508"></ellipse>
                <ellipse id="York" fill="#FB9A99" sketch:type="MSShapeGroup" mask="url(#mask-2)" cx="95.1940935" cy="153.541737" rx="9.36205892" ry="9.36149508"></ellipse>
                <ellipse id="McMaster" fill="#3814A0" sketch:type="MSShapeGroup" mask="url(#mask-2)" cx="113.762177" cy="129.669924" rx="9.36205892" ry="9.36149508"></ellipse>
                <ellipse id="Western" fill="#1F78B4" sketch:type="MSShapeGroup" mask="url(#mask-2)" cx="141.614302" cy="62.0331225" rx="9.36205892" ry="9.36149508"></ellipse>
            </g>
        </g>
    </g>
</svg>